<svg xmlns="http://www.w3.org/2000/svg" width="1881.5" height="862.79" viewBox="0 0 1881.5 862.79"><path fill="#f4f4f4" d="M0 38.946v-14.1h342.9v15.2q-57 0-73.6 27.6-16.65 27.6-16.6 72.8v543.3q0 25.8 4.5 46.2 4.5 20.55 23.5 37c12.7 11 32.1 16.6 58.2 16.6h4v15.2H0v-15.2q56.55 0 73.3-27.3 16.8-27.3 16.8-72.5v-543.3c0-35.7-7.4-61.6-22.1-77.5q-21.75-24-68-24zm829.456 669.806l56.858 38.12a119.911 119.911 0 0 0 27.556 15.248 92.772 92.772 0 0 0 34.813 6.522q31 0 65.125-36.191l14.146 10.655q-24.526 44.366-64.666 82.026-40.095 37.614-105.174 37.66a193.648 193.648 0 0 1-77.613-15.892q-36.65-15.983-93.968-52.082-86.527-56.491-132-91.212c-29.394-14.513-52.816-27.373-70.085-38.579q-25.9-16.947-52.357-46.295-45.468-51.117-67.33-118.217a437.566 437.566 0 0 1-21.86-136.586q0-72.336 23.239-138.241a349.763 349.763 0 0 1 68.248-116.839q45.055-50.979 110.869-79.914Q610.979 0 694.337 0q81.43 0 147.243 28.934 65.722 28.934 110.409 79.179a342.812 342.812 0 0 1 67.33 114.176 392.594 392.594 0 0 1 22.78 132.455 441.719 441.719 0 0 1-10.471 94.335 397.152 397.152 0 0 1-31.139 90.293 338.7 338.7 0 0 1-49.877 75.5q-32.792 36.65-62.829 55.3A457.724 457.724 0 0 1 821.74 703.7c4.225 2.3 6.797 4.041 7.716 5.052zM882.64 350.61q0-39.544-4.317-85.425-4.271-45.881-21.861-98.009a216.243 216.243 0 0 0-57.777-90.018q-40.232-37.89-107.195-37.844-115.6 0-152.479 101.316-36.925 101.408-36.834 231.658a667.626 667.626 0 0 0 34.354 211.174q34.308 103.474 154.041 103.52 47.81 0 85.792-24.617 38.028-24.663 57.593-58.879 48.775-82.945 48.683-252.876zM1629 798.746v-146.6h-2q-79.8 154.95-237.4 155-79.8 0-143-39.4-63.15-39.45-93.4-100.4-31.65-63-31.7-201.2v-325.7q0-49.35-18.6-74.9-18.6-25.5-71.6-25.5v-15.2h342.9v15.2q-56.55 0-73.3 27.3c-11.2 18.2-16.8 42.6-16.8 73v345.2q0 76.2 17.3 120.3 12.45 32.1 34.9 55.2a150.795 150.795 0 0 0 52.5 35.2 165.429 165.429 0 0 0 62.7 12.1 169.5 169.5 0 0 0 65.4-12.9 177.615 177.615 0 0 0 56.2-37 164.4 164.4 0 0 0 37.9-54.6q17.85-45.15 17.8-140.8v-322.6q0-55.2-20.8-78.3-20.85-23.1-69.4-23.1v-14.2h342.9v15.2q-55.95 0-73.1 26.8-17.1 26.85-17.1 73.6v543.3q0 51.45 19.3 76.2 19.35 24.75 70.9 24.7v14.2H1629z"/></svg>