<svg xmlns="http://www.w3.org/2000/svg" width="122.11" height="86.7" viewBox="0 0 122.11 86.7"><ellipse cx="39.79" cy="39.79" fill="#abd2ca" rx="39.79" ry="39.79" transform="rotate(-84.608 52.4 29.864)"/><path fill="#282d33" d="M61.057 70.784A27.262 27.262 0 0 1 33.815 46.17a26.1 26.1 0 0 1 .956-10.515l1.195-4.182 2.868 3.226a7.051 7.051 0 0 0 6.333 2.39 7.569 7.569 0 0 0 5.018-2.748 7.485 7.485 0 0 0 1.553-5.5 7.211 7.211 0 0 0-3.7-5.616l-3.7-2.151 3.823-2.031a27.183 27.183 0 0 1 10.156-3.107 24 24 0 0 1 2.979-.115 27.5 27.5 0 0 1 2.868 54.843 29.15 29.15 0 0 1-3.107.12zm-22.583-30.23a18.5 18.5 0 0 0 0 5.138 22.586 22.586 0 0 0 22.583 20.312 15.235 15.235 0 0 0 2.39-.119 22.705 22.705 0 0 0-2.39-45.284 15.234 15.234 0 0 0-2.39.119 33.986 33.986 0 0 0-5.018 1.075 13.1 13.1 0 0 1 2.868 6.572 12.12 12.12 0 0 1-2.629 8.961 11.852 11.852 0 0 1-8.244 4.421 10.623 10.623 0 0 1-7.17-1.195z"/><path fill="#282d33" d="M61.056 71.978c-24.494 0-46.957-10.156-59.981-27.123L0 43.422l1.075-1.434c13.144-16.967 35.607-27.123 59.981-27.123 24.494 0 46.957 10.156 59.981 27.123l1.075 1.434-1.075 1.434c-13.023 16.966-35.486 27.122-59.981 27.122zM5.974 43.422C18.4 58.358 38.832 67.199 61.056 67.199c22.344 0 42.775-8.842 55.082-23.777-12.426-14.936-32.858-23.777-55.082-23.777-22.343-.12-42.775 8.841-55.082 23.777z"/></svg>