<svg id="Group_76" data-name="Group 76" xmlns="http://www.w3.org/2000/svg" width="118.05" height="118.887" viewBox="0 0 118.05 118.887">
  <g id="Group_69" data-name="Group 69" transform="translate(0 6.094)">
    <g id="Group_45" data-name="Group 45" transform="translate(0 21.507)">
      <path id="Path_23" data-name="Path 23" d="M116.007,99.653A43.253,43.253,0,1,1,72.753,56.4,43.242,43.242,0,0,1,116.007,99.653Z" transform="translate(-27.11 -54.01)" fill="#fff"/>
      <path id="Path_24" data-name="Path 24" d="M73.143,145.686a45.643,45.643,0,1,1,45.643-45.643A45.639,45.639,0,0,1,73.143,145.686Zm0-86.387a40.864,40.864,0,1,0,40.864,40.864A40.922,40.922,0,0,0,73.143,59.3Z" transform="translate(-27.5 -54.4)" fill="#282d33"/>
    </g>
    <g id="Group_47" data-name="Group 47" transform="translate(34.65)">
      <g id="Group_46" data-name="Group 46">
        <path id="Path_25" data-name="Path 25" d="M75.845,49.154a1.887,1.887,0,0,1-1.912,1.912H60.312A1.887,1.887,0,0,1,58.4,49.154V40.312A1.887,1.887,0,0,1,60.312,38.4H73.933a1.887,1.887,0,0,1,1.912,1.912Z" transform="translate(-56.13 -36.01)" fill="#fff"/>
        <path id="Path_26" data-name="Path 26" d="M74.3,53.725H60.682a4.244,4.244,0,0,1-2.987-1.195A4.148,4.148,0,0,1,56.5,49.543V40.7a4.284,4.284,0,0,1,4.3-4.3H74.423a3.883,3.883,0,0,1,2.987,1.314A4.148,4.148,0,0,1,78.6,40.7v8.842A4.259,4.259,0,0,1,74.3,53.725ZM61.279,48.946H73.825V41.06H61.16Z" transform="translate(-56.5 -36.4)" fill="#282d33"/>
      </g>
    </g>
    <g id="Group_52" data-name="Group 52" transform="translate(9.17 15.639)">
      <g id="Group_51" data-name="Group 51">
        <g id="Group_50" data-name="Group 50">
          <g id="Group_49" data-name="Group 49">
            <g id="Group_48" data-name="Group 48">
              <path id="Path_27" data-name="Path 27" d="M40.539,62.625l-3.107-4.54a1.2,1.2,0,0,1,.358-1.673l7.05-4.779a1.2,1.2,0,0,1,1.673.358l3.107,4.54Z" transform="translate(-34.774 -49.11)" fill="#fff"/>
              <path id="Path_28" data-name="Path 28" d="M38.909,64.318,35.8,59.778a4.091,4.091,0,0,1-.6-2.629,3.089,3.089,0,0,1,1.553-2.27l7.05-4.779a3.48,3.48,0,0,1,4.9.956l3.107,4.54L47.87,58.225l-2.39-3.585-5.018,3.346,2.39,3.585Z" transform="translate(-35.175 -49.488)" fill="#282d33"/>
            </g>
          </g>
        </g>
      </g>
    </g>
    <path id="Path_29" data-name="Path 29" d="M96,96.848A26.048,26.048,0,1,1,69.948,70.8,26.109,26.109,0,0,1,96,96.848Z" transform="translate(-24.305 -29.697)" fill="#abd2ca"/>
    <path id="Path_30" data-name="Path 30" d="M83.349,95.074A15.174,15.174,0,1,1,68.174,79.9,15.2,15.2,0,0,1,83.349,95.074Z" transform="translate(-22.532 -27.924)" fill="#fff"/>
    <g id="Group_65" data-name="Group 65" transform="translate(10.037 31.544)">
      <g id="Group_53" data-name="Group 53" transform="translate(32.858)">
        <path id="Path_31" data-name="Path 31" d="M65.4,62.8v0Z" transform="translate(-63.01 -62.8)" fill="#fff"/>
        <rect id="Rectangle_28" data-name="Rectangle 28" width="4.779" height="5.974" fill="#282d33"/>
      </g>
      <g id="Group_54" data-name="Group 54" transform="translate(15.438 3.753)">
        <path id="Path_32" data-name="Path 32" d="M50.6,66.9l2.987,5.138Z" transform="translate(-48.473 -65.754)" fill="#fff"/>
        <rect id="Rectangle_29" data-name="Rectangle 29" width="4.779" height="5.974" transform="translate(0 2.391) rotate(-30.014)" fill="#282d33"/>
      </g>
      <g id="Group_55" data-name="Group 55" transform="translate(3.381 16.05)">
        <path id="Path_33" data-name="Path 33" d="M39.7,78l5.138,2.987Z" transform="translate(-38.541 -75.888)" fill="#fff"/>
        <rect id="Rectangle_30" data-name="Rectangle 30" width="4.779" height="5.974" transform="translate(0 4.137) rotate(-59.966)" fill="#282d33"/>
      </g>
      <g id="Group_56" data-name="Group 56" transform="translate(0 33.575)">
        <path id="Path_34" data-name="Path 34" d="M35.9,92.9h0Z" transform="translate(-35.9 -90.51)" fill="#fff"/>
        <rect id="Rectangle_31" data-name="Rectangle 31" width="5.974" height="4.779" fill="#282d33"/>
      </g>
      <g id="Group_57" data-name="Group 57" transform="translate(3.714 48.661)">
        <path id="Path_35" data-name="Path 35" d="M40,108.287l5.138-2.987Z" transform="translate(-38.815 -103.181)" fill="#fff"/>
        <rect id="Rectangle_32" data-name="Rectangle 32" width="5.974" height="4.779" transform="translate(0 2.985) rotate(-29.98)" fill="#282d33"/>
      </g>
      <g id="Group_58" data-name="Group 58" transform="translate(15.982 60.303)">
        <path id="Path_36" data-name="Path 36" d="M51.1,119.438l2.987-5.138Z" transform="translate(-48.921 -113.069)" fill="#fff"/>
        <rect id="Rectangle_33" data-name="Rectangle 33" width="5.974" height="4.779" transform="translate(0 5.171) rotate(-59.953)" fill="#282d33"/>
      </g>
      <g id="Group_59" data-name="Group 59" transform="translate(33.575 65.358)">
        <path id="Path_37" data-name="Path 37" d="M66,123.474v0Z" transform="translate(-63.61 -117.5)" fill="#fff"/>
        <rect id="Rectangle_34" data-name="Rectangle 34" width="4.779" height="5.974" fill="#282d33"/>
      </g>
      <g id="Group_60" data-name="Group 60" transform="translate(48.681 60.037)">
        <path id="Path_38" data-name="Path 38" d="M81.387,119.138,78.4,114Z" transform="translate(-76.3 -112.861)" fill="#fff"/>
        <rect id="Rectangle_35" data-name="Rectangle 35" width="4.779" height="5.974" transform="translate(0 2.386) rotate(-29.955)" fill="#282d33"/>
      </g>
      <g id="Group_61" data-name="Group 61" transform="translate(60.234 48.14)">
        <path id="Path_39" data-name="Path 39" d="M92.538,107.787,87.4,104.8Z" transform="translate(-86.1 -102.757)" fill="#fff"/>
        <rect id="Rectangle_36" data-name="Rectangle 36" width="4.779" height="5.974" transform="matrix(0.501, -0.865, 0.865, 0.501, 0, 4.137)" fill="#282d33"/>
      </g>
      <g id="Group_62" data-name="Group 62" transform="translate(65.26 32.875)">
        <path id="Path_40" data-name="Path 40" d="M96.574,92.4h0Z" transform="translate(-90.502 -89.907)" fill="#fff"/>
        <rect id="Rectangle_37" data-name="Rectangle 37" width="4.779" height="5.974" transform="translate(0 4.779) rotate(-89.938)" fill="#282d33"/>
      </g>
      <g id="Group_63" data-name="Group 63" transform="translate(60.016 15.416)">
        <path id="Path_41" data-name="Path 41" d="M92.238,77.5,87.1,80.487Z" transform="translate(-85.94 -75.352)" fill="#fff"/>
        <rect id="Rectangle_38" data-name="Rectangle 38" width="5.974" height="4.779" transform="matrix(0.867, -0.499, 0.499, 0.867, 0, 2.983)" fill="#282d33"/>
      </g>
      <g id="Group_64" data-name="Group 64" transform="translate(48.07 3.455)">
        <path id="Path_42" data-name="Path 42" d="M80.887,66.6,77.9,71.857Z" transform="translate(-75.786 -65.515)" fill="#fff"/>
        <rect id="Rectangle_39" data-name="Rectangle 39" width="5.974" height="4.779" transform="translate(0 5.171) rotate(-59.953)" fill="#282d33"/>
      </g>
    </g>
    <g id="Group_67" data-name="Group 67" transform="translate(39.071 60.578)">
      <g id="Group_66" data-name="Group 66" transform="translate(0 0)">
        <path id="Path_43" data-name="Path 43" d="M70.564,93.282a4.182,4.182,0,1,0-8.364,0,4.156,4.156,0,0,0,4.182,4.182A4.233,4.233,0,0,0,70.564,93.282Z" transform="translate(-59.81 -86.71)" fill="#fff"/>
        <path id="Path_44" data-name="Path 44" d="M66.772,100.243h0A6.63,6.63,0,0,1,60.2,93.672a6.813,6.813,0,0,1,1.912-4.66,6.579,6.579,0,1,1,4.66,11.232Zm0-8.364a1.825,1.825,0,0,0-1.195.478,1.534,1.534,0,0,0-.478,1.195,1.838,1.838,0,0,0,1.792,1.792h0a1.838,1.838,0,0,0,1.792-1.792A2.043,2.043,0,0,0,66.772,91.879Z" transform="translate(-60.2 -87.1)" fill="#282d33"/>
      </g>
    </g>
    <g id="Group_68" data-name="Group 68" transform="translate(43.253 14.697)">
      <rect id="Rectangle_40" data-name="Rectangle 40" width="4.779" height="6.572" fill="#282d33"/>
    </g>
  </g>
  <g id="Group_75" data-name="Group 75" transform="translate(46.36)">
    <g id="Group_70" data-name="Group 70" transform="translate(35.487 4.421)">
      <path id="Path_45" data-name="Path 45" d="M99.226,63.557,96,53.64,114.64,35l3.346,9.917Z" transform="translate(-96 -35)" fill="#1c0fd5"/>
      <path id="Path_46" data-name="Path 46" d="M98.7,61.94l9.917,3.226,18.64-18.64-9.8-3.226Z" transform="translate(-95.474 -33.383)" fill="#1c0fd5"/>
    </g>
    <g id="Group_73" data-name="Group 73" transform="translate(32.739)">
      <g id="Group_71" data-name="Group 71">
        <path id="Path_47" data-name="Path 47" d="M98.718,68.7,93.7,53.763,116.163,31.3l5.018,14.936ZM99.2,55.077l1.553,4.779,14.936-14.936-1.553-4.779Z" transform="translate(-93.7 -31.3)" fill="#282d33"/>
      </g>
      <g id="Group_72" data-name="Group 72" transform="translate(1.553 11.59)">
        <path id="Path_48" data-name="Path 48" d="M109.936,68.362,95,63.463,117.463,41,132.4,46.018Zm-6.094-7.05,4.779,1.553L123.557,47.93l-4.779-1.553Z" transform="translate(-95 -41)" fill="#282d33"/>
      </g>
    </g>
    <g id="Group_74" data-name="Group 74" transform="translate(0 9.2)">
      <path id="Path_49" data-name="Path 49" d="M68.69,101.61a2.359,2.359,0,0,1-1.673-.717,2.31,2.31,0,0,1,0-3.346l57.83-57.83a2.366,2.366,0,1,1,3.346,3.346l-57.83,57.83A2.359,2.359,0,0,1,68.69,101.61Z" transform="translate(-66.3 -39)" fill="#282d33"/>
    </g>
  </g>
</svg>
