<svg xmlns="http://www.w3.org/2000/svg" width="118.26" height="105.982" viewBox="0 0 118.26 105.982">
  <g id="Group_44" data-name="Group 44" transform="translate(0)">
    <g id="Group_35" data-name="Group 35" transform="translate(0 13.054)">
      <g id="Group_31" data-name="Group 31">
        <path id="Path_17" data-name="Path 17" d="M249.154,99.81,252.26,96.7a28.485,28.485,0,0,0,0-40.266l-.478-.478a28.485,28.485,0,0,0-40.266,0l-3.107,3.107L205.3,55.959a28.485,28.485,0,0,0-40.266,0l-.478.478a28.485,28.485,0,0,0,0,40.266l3.107,3.107,40.744,40.744Z" transform="translate(-156.225 -47.625)" fill="#1c0fd5"/>
      </g>
      <g id="Group_34" data-name="Group 34" transform="translate(9.26 8.573)">
        <g id="Group_33" data-name="Group 33">
          <g id="Group_32" data-name="Group 32">
            <path id="Path_18" data-name="Path 18" d="M169.621,88.017a19.255,19.255,0,0,1,0-27.242l.358-.358A18.966,18.966,0,0,1,183.6,54.8v4.779a14.573,14.573,0,0,0-10.276,4.3l-.358.358a14.5,14.5,0,0,0,0,20.432Z" transform="translate(-163.975 -54.8)" fill="#fff"/>
          </g>
        </g>
      </g>
    </g>
    <g id="Group_43" data-name="Group 43" transform="translate(12.874)">
      <g id="Group_36" data-name="Group 36" transform="translate(0 71.571)">
        <path id="Path_19" data-name="Path 19" d="M198.635,119.388l-1.434,1.434-27.6,4.66,6.213-26.048L177.247,98Z" transform="translate(-166.493 -96.327)" fill="#fff"/>
        <path id="Path_20" data-name="Path 20" d="M167,128.741l7.169-30.229,1.912-1.912,3.346,3.346-.956.956-5.138,21.866,23.18-3.823.956-.956,3.346,3.346-1.912,2.031Z" transform="translate(-167 -96.6)" fill="#282d33"/>
      </g>
      <g id="Group_37" data-name="Group 37" transform="translate(7.289 8.125)">
        <rect id="Rectangle_24" data-name="Rectangle 24" width="87.104" height="30.588" transform="translate(3.339 64.943) rotate(-45)" fill="#abd2ca"/>
        <path id="Path_21" data-name="Path 21" d="M238.1,50.311,256.38,68.592,198.192,126.78,179.911,108.5,238.1,50.311Zm0-6.811-65,65,25.092,25.092,65-65L238.1,43.5Z" transform="translate(-173.1 -43.5)" fill="#282d33"/>
      </g>
      <g id="Group_40" data-name="Group 40" transform="translate(17.631 16.835)">
        <g id="Group_38" data-name="Group 38" transform="translate(7.046 7.057)">
          <rect id="Rectangle_25" data-name="Rectangle 25" width="86.148" height="4.779" transform="matrix(0.707, -0.707, 0.707, 0.707, 0, 60.907)" fill="#282d33"/>
        </g>
        <g id="Group_39" data-name="Group 39" transform="translate(0)">
          <rect id="Rectangle_26" data-name="Rectangle 26" width="86.148" height="4.779" transform="matrix(0.707, -0.707, 0.707, 0.707, 0, 60.907)" fill="#282d33"/>
        </g>
      </g>
      <g id="Group_41" data-name="Group 41" transform="translate(74.678)">
        <path id="Path_22" data-name="Path 22" d="M254.114,67.407l-3.346-3.346,4.54-4.54a3.168,3.168,0,0,0-.6-.717L238.1,42.2a3.167,3.167,0,0,0-.717-.6l-4.54,4.54L229.5,42.794l5.138-5.138a3.336,3.336,0,0,1,2.39-.956h0a6.729,6.729,0,0,1,4.421,2.151l16.608,16.608c2.27,2.39,2.868,5.257,1.195,6.811Z" transform="translate(-229.5 -36.7)" fill="#282d33"/>
      </g>
      <g id="Group_42" data-name="Group 42" transform="translate(2.846 90.913)">
        <rect id="Rectangle_27" data-name="Rectangle 27" width="4.779" height="8.961" transform="translate(0 3.379) rotate(-45)" fill="#282d33"/>
      </g>
    </g>
  </g>
</svg>
