<svg xmlns="http://www.w3.org/2000/svg" width="118.05" height="118.89" viewBox="0 0 118.05 118.89"><path fill="#fff" d="M88.897 73.244a43.253 43.253 0 1 1-43.254-43.253 43.242 43.242 0 0 1 43.254 43.253z"/><path fill="#282d33" d="M45.643 118.887a45.643 45.643 0 1 1 45.643-45.643 45.639 45.639 0 0 1-45.643 45.643zm0-86.387a40.864 40.864 0 1 0 40.864 40.864 40.922 40.922 0 0 0-40.864-40.863z"/><path fill="#fff" d="M54.365 19.238a1.887 1.887 0 0 1-1.912 1.912H38.832a1.887 1.887 0 0 1-1.912-1.912v-8.842a1.887 1.887 0 0 1 1.912-1.912h13.621a1.887 1.887 0 0 1 1.912 1.912z"/><path fill="#282d33" d="M52.45 23.419H38.832a4.244 4.244 0 0 1-2.987-1.195 4.148 4.148 0 0 1-1.195-2.987v-8.843a4.284 4.284 0 0 1 4.3-4.3h13.623a3.883 3.883 0 0 1 2.987 1.314 4.148 4.148 0 0 1 1.19 2.986v8.842a4.259 4.259 0 0 1-4.3 4.183zM39.429 18.64h12.546v-7.886H39.31z"/><path fill="#fff" d="M14.935 35.248l-3.107-4.54a1.2 1.2 0 0 1 .358-1.673l7.05-4.779a1.2 1.2 0 0 1 1.673.358l3.107 4.54z"/><path fill="#282d33" d="M12.904 36.563l-3.109-4.54a4.091 4.091 0 0 1-.6-2.629 3.089 3.089 0 0 1 1.553-2.27l7.05-4.779a3.48 3.48 0 0 1 4.9.956l3.107 4.54-3.94 2.629-2.39-3.585-5.018 3.346 2.39 3.585z"/><path fill="#abd2ca" d="M71.695 73.245a26.048 26.048 0 1 1-26.052-26.048 26.109 26.109 0 0 1 26.052 26.048z"/><path fill="#fff" d="M60.817 73.244A15.174 15.174 0 1 1 45.642 58.07a15.2 15.2 0 0 1 15.175 15.174z"/><path fill="#282d33" d="M42.895 37.638h4.78v5.97h-4.78z"/><path fill="#fff" d="M27.602 42.537l2.987 5.138z"/><path fill="#282d33" d="M25.475 43.782l4.139-2.391 2.986 5.17-4.139 2.39z"/><path fill="#fff" d="M14.577 55.8l5.138 2.987z"/><path fill="#282d33" d="M13.418 57.825l2.392-4.138 5.169 2.988-2.393 4.138zm-3.381 13.388h5.97v4.78h-5.97z"/><path fill="#fff" d="M14.936 91.405l5.138-2.987z"/><path fill="#282d33" d="M13.751 89.284l5.171-2.983 2.389 4.14-5.171 2.983z"/><path fill="#fff" d="M28.198 104.31l2.987-5.138z"/><path fill="#282d33" d="M26.019 103.112l2.99-5.168 4.137 2.394-2.99 5.167zm17.593-.116h4.78v5.97h-4.78z"/><path fill="#fff" d="M63.805 103.952l-2.987-5.138z"/><path fill="#282d33" d="M58.718 100.061l4.141-2.387 2.981 5.173-4.141 2.387z"/><path fill="#fff" d="M76.709 90.808l-5.138-2.987z"/><path fill="#282d33" d="M70.271 89.915l2.395-4.135 5.164 2.991-2.395 4.135zm5.026-14.623l.005-4.78 5.97.006-.005 4.78z"/><path fill="#fff" d="M76.351 55.202l-5.138 2.987z"/><path fill="#282d33" d="M70.053 56.037l5.176-2.979 2.385 4.144-5.176 2.98z"/><path fill="#fff" d="M63.208 42.178l-2.987 5.257z"/><path fill="#282d33" d="M58.107 46.264l2.99-5.168 4.137 2.394-2.99 5.167z"/><path fill="#fff" d="M49.825 73.244a4.182 4.182 0 1 0-8.364 0 4.156 4.156 0 0 0 4.182 4.182 4.233 4.233 0 0 0 4.182-4.182z"/><path fill="#282d33" d="M45.643 79.815a6.63 6.63 0 0 1-6.572-6.571 6.813 6.813 0 0 1 1.912-4.66 6.579 6.579 0 1 1 4.66 11.232zm0-8.364a1.825 1.825 0 0 0-1.195.478 1.534 1.534 0 0 0-.478 1.195 1.838 1.838 0 0 0 1.792 1.792 1.838 1.838 0 0 0 1.792-1.792 2.043 2.043 0 0 0-1.911-1.673zm-2.39-50.66h4.78v6.57h-4.78z"/><g fill="#1c0fd5"><path d="M85.073 32.978l-3.226-9.917 18.64-18.64 3.346 9.917z"/><path d="M85.073 32.978l9.917 3.226 18.64-18.64-9.8-3.226z"/></g><path fill="#282d33" d="M84.117 37.4l-5.018-14.937L101.562 0l5.018 14.936zm.482-13.623l1.553 4.779 14.936-14.936-1.553-4.779z"/><path fill="#282d33" d="M95.588 38.952l-14.936-4.899 22.463-22.463 14.937 5.018zm-6.094-7.05l4.779 1.553 14.936-14.935-4.779-1.553z"/><path fill="#282d33" d="M48.75 71.81a2.359 2.359 0 0 1-1.673-.717 2.31 2.31 0 0 1 0-3.346l57.83-57.83a2.366 2.366 0 1 1 3.346 3.346l-57.83 57.83a2.359 2.359 0 0 1-1.673.717z"/></svg>