<svg xmlns="http://www.w3.org/2000/svg" width="118.26" height="105.98" viewBox="0 0 118.26 105.98"><path fill="#1c0fd5" d="M92.929 65.239l3.106-3.11a28.485 28.485 0 0 0 0-40.266l-.478-.478a28.485 28.485 0 0 0-40.266 0l-3.107 3.107-3.109-3.104a28.485 28.485 0 0 0-40.266 0l-.478.478a28.485 28.485 0 0 0 0 40.266l3.107 3.107 40.744 40.744z"/><path fill="#fff" d="M14.906 54.844a19.255 19.255 0 0 1 0-27.242l.358-.358a18.966 18.966 0 0 1 13.621-5.617v4.779a14.573 14.573 0 0 0-10.276 4.3l-.358.358a14.5 14.5 0 0 0 0 20.432zm30.11 39.788l-1.434 1.434-27.6 4.66 6.213-26.048 1.433-1.434z"/><path fill="#282d33" d="M12.874 103.712l7.169-30.229 1.912-1.912 3.346 3.346-.956.956-5.138 21.866 23.18-3.823.956-.956 3.346 3.346-1.912 2.031z"/><path fill="#abd2ca" d="M23.502 73.068l61.589-61.589 21.63 21.63L45.132 94.7z"/><path fill="#282d33" d="M85.163 14.936l18.28 18.281-58.188 58.188-18.281-18.28 58.189-58.189zm0-6.811l-65 65 25.092 25.092 65-65L85.163 8.125z"/><path fill="#282d33" d="M37.551 84.799l60.908-60.908 3.38 3.38L40.93 88.177zm-7.046-7.057l60.908-60.908 3.38 3.38L33.884 81.12zm81.661-47.035l-3.346-3.346 4.54-4.54a3.168 3.168 0 0 0-.6-.717L96.152 5.5a3.167 3.167 0 0 0-.717-.6l-4.54 4.54-3.343-3.346L92.69.956A3.336 3.336 0 0 1 95.08 0a6.729 6.729 0 0 1 4.421 2.151l16.608 16.608c2.27 2.39 2.868 5.257 1.195 6.811zM15.72 94.292l3.38-3.38 6.336 6.336-3.38 3.38z"/></svg>