<svg id="Group_30" data-name="Group 30" xmlns="http://www.w3.org/2000/svg" width="122.113" height="86.704" viewBox="0 0 122.113 86.704">
  <ellipse id="Ellipse_1377" data-name="Ellipse 1377" cx="39.788" cy="39.788" rx="39.788" ry="39.788" transform="translate(17.744 79.226) rotate(-84.608)" fill="#abd2ca"/>
  <g id="Group_28" data-name="Group 28" transform="translate(33.659 15.821)">
    <path id="Path_15" data-name="Path 15" d="M340.868,112.963h0a27.262,27.262,0,0,1-27.242-24.614,26.1,26.1,0,0,1,.956-10.515l1.195-4.182,2.868,3.226a7.051,7.051,0,0,0,6.333,2.39,7.569,7.569,0,0,0,5.018-2.748,7.485,7.485,0,0,0,1.553-5.5,7.211,7.211,0,0,0-3.7-5.616l-3.7-2.151,3.823-2.031a27.183,27.183,0,0,1,10.156-3.107A24,24,0,0,1,341.107,58a27.5,27.5,0,0,1,2.868,54.843A29.15,29.15,0,0,1,340.868,112.963ZM318.285,82.733a18.5,18.5,0,0,0,0,5.138,22.586,22.586,0,0,0,22.583,20.312h0a15.235,15.235,0,0,0,2.39-.119,22.705,22.705,0,0,0-2.39-45.284,15.234,15.234,0,0,0-2.39.119,33.986,33.986,0,0,0-5.018,1.075,13.1,13.1,0,0,1,2.868,6.572,12.12,12.12,0,0,1-2.629,8.961,11.852,11.852,0,0,1-8.244,4.421A10.623,10.623,0,0,1,318.285,82.733Z" transform="translate(-313.47 -58)" fill="#282d33"/>
  </g>
  <g id="Group_29" data-name="Group 29" transform="translate(0 14.865)">
    <path id="Path_16" data-name="Path 16" d="M346.356,114.313c-24.494,0-46.957-10.156-59.981-27.123L285.3,85.757l1.075-1.434C299.519,67.356,321.982,57.2,346.356,57.2c24.494,0,46.957,10.156,59.981,27.123l1.075,1.434-1.075,1.434C393.314,104.157,370.851,114.313,346.356,114.313ZM291.274,85.757c12.426,14.936,32.858,23.777,55.082,23.777,22.344,0,42.775-8.842,55.082-23.777-12.426-14.936-32.858-23.777-55.082-23.777C324.013,61.86,303.581,70.821,291.274,85.757Z" transform="translate(-285.3 -57.2)" fill="#282d33"/>
  </g>
</svg>
