<?xml version="1.0" encoding="utf-8"?>
<!-- Generator: Adobe Illustrator 22.0.0, SVG Export Plug-In . SVG Version: 6.00 Build 0)  -->
<svg version="1.1" id="Слой_1" xmlns="http://www.w3.org/2000/svg" xmlns:xlink="http://www.w3.org/1999/xlink" x="0px" y="0px"
	 viewBox="0 0 325.3 103.7" style="enable-background:new 0 0 325.3 103.7;" xml:space="preserve">
<style type="text/css">
	.st0{display:none;}
	.st1{display:inline;}
	.st2{fill:#CDD5D7;}
	.st3{fill:#5EB4E7;}
	.st4{fill:#282D33;}
	.st5{fill:#FFFFFF;}
	.st6{fill:#F8C44F;}
</style>
<g id="Layer_2">
</g>
<g id="Layer_3" class="st0">
	<g class="st1">
		<g>
			<g>
				<rect x="-964.6" y="911.2" class="st2" width="120" height="120"/>
			</g>
			<g>
				<rect x="-811.2" y="911.2" class="st2" width="120" height="120"/>
			</g>
			<g>
				<rect x="-657.8" y="911.2" class="st2" width="120" height="120"/>
			</g>
			<g>
				<rect x="-504.4" y="911.2" class="st2" width="120" height="120"/>
			</g>
			<g>
				<rect x="-351" y="911.2" class="st2" width="120" height="120"/>
			</g>
			<g>
				<rect x="-197.6" y="911.2" class="st2" width="120" height="120"/>
			</g>
			<g>
				<g>
					<rect x="-964.6" y="1064.6" class="st2" width="120" height="120"/>
				</g>
				<g>
					<rect x="-811.2" y="1064.6" class="st2" width="120" height="120"/>
				</g>
				<g>
					<rect x="-657.8" y="1064.6" class="st2" width="120" height="120"/>
				</g>
				<g>
					<rect x="-504.4" y="1064.6" class="st2" width="120" height="120"/>
				</g>
				<g>
					<rect x="-351" y="1064.6" class="st2" width="120" height="120"/>
				</g>
				<g>
					<rect x="-197.6" y="1064.6" class="st2" width="120" height="120"/>
				</g>
			</g>
			<g>
				<g>
					<rect x="-964.6" y="1218" class="st2" width="120" height="120"/>
				</g>
				<g>
					<rect x="-811.2" y="1218" class="st2" width="120" height="120"/>
				</g>
				<g>
					<rect x="-657.8" y="1218" class="st2" width="120" height="120"/>
				</g>
				<g>
					<rect x="-504.4" y="1218" class="st2" width="120" height="120"/>
				</g>
				<g>
					<rect x="-351" y="1218" class="st2" width="120" height="120"/>
				</g>
				<g>
					<rect x="-197.6" y="1218" class="st2" width="120" height="120"/>
				</g>
			</g>
			<g>
				<g>
					<rect x="-964.6" y="1371.4" class="st2" width="120" height="120"/>
				</g>
				<g>
					<rect x="-811.2" y="1371.4" class="st2" width="120" height="120"/>
				</g>
				<g>
					<rect x="-657.8" y="1371.4" class="st2" width="120" height="120"/>
				</g>
				<g>
					<rect x="-504.4" y="1371.4" class="st2" width="120" height="120"/>
				</g>
				<g>
					<rect x="-351" y="1371.4" class="st2" width="120" height="120"/>
				</g>
				<g>
					<rect x="-197.6" y="1371.4" class="st2" width="120" height="120"/>
				</g>
			</g>
		</g>
	</g>
	<g class="st1">
		<g>
			<g>
				<rect x="-964.1" y="296.3" class="st2" width="120" height="120"/>
			</g>
			<g>
				<rect x="-810.7" y="296.3" class="st2" width="120" height="120"/>
			</g>
			<g>
				<rect x="-657.3" y="296.3" class="st2" width="120" height="120"/>
			</g>
			<g>
				<rect x="-503.9" y="296.3" class="st2" width="120" height="120"/>
			</g>
			<g>
				<rect x="-350.5" y="296.3" class="st2" width="120" height="120"/>
			</g>
			<g>
				<rect x="-197.1" y="296.3" class="st2" width="120" height="120"/>
			</g>
			<g>
				<g>
					<rect x="-964.1" y="449.7" class="st2" width="120" height="120"/>
				</g>
				<g>
					<rect x="-810.7" y="449.7" class="st2" width="120" height="120"/>
				</g>
				<g>
					<rect x="-657.3" y="449.7" class="st2" width="120" height="120"/>
				</g>
				<g>
					<rect x="-503.9" y="449.7" class="st2" width="120" height="120"/>
				</g>
				<g>
					<rect x="-350.5" y="449.7" class="st2" width="120" height="120"/>
				</g>
				<g>
					<rect x="-197.1" y="449.7" class="st2" width="120" height="120"/>
				</g>
			</g>
			<g>
				<g>
					<rect x="-964.1" y="603.1" class="st2" width="120" height="120"/>
				</g>
				<g>
					<rect x="-810.7" y="603.1" class="st2" width="120" height="120"/>
				</g>
				<g>
					<rect x="-657.3" y="603.1" class="st2" width="120" height="120"/>
				</g>
				<g>
					<rect x="-503.9" y="603.1" class="st2" width="120" height="120"/>
				</g>
				<g>
					<rect x="-350.5" y="603.1" class="st2" width="120" height="120"/>
				</g>
				<g>
					<rect x="-197.1" y="603.1" class="st2" width="120" height="120"/>
				</g>
			</g>
			<g>
				<g>
					<rect x="-964.1" y="756.5" class="st2" width="120" height="120"/>
				</g>
				<g>
					<rect x="-810.7" y="756.5" class="st2" width="120" height="120"/>
				</g>
				<g>
					<rect x="-657.3" y="756.5" class="st2" width="120" height="120"/>
				</g>
				<g>
					<rect x="-503.9" y="756.5" class="st2" width="120" height="120"/>
				</g>
				<g>
					<rect x="-350.5" y="756.5" class="st2" width="120" height="120"/>
				</g>
				<g>
					<rect x="-197.1" y="756.5" class="st2" width="120" height="120"/>
				</g>
			</g>
		</g>
	</g>
	<g class="st1">
		<g>
			<g>
				<rect x="-966.5" y="1526" class="st2" width="120" height="120"/>
			</g>
			<g>
				<rect x="-813.1" y="1526" class="st2" width="120" height="120"/>
			</g>
			<g>
				<rect x="-659.7" y="1526" class="st2" width="120" height="120"/>
			</g>
			<g>
				<rect x="-506.3" y="1526" class="st2" width="120" height="120"/>
			</g>
			<g>
				<rect x="-352.9" y="1526" class="st2" width="120" height="120"/>
			</g>
			<g>
				<rect x="-199.5" y="1526" class="st2" width="120" height="120"/>
			</g>
			<g>
				<g>
					<rect x="-966.5" y="1679.4" class="st2" width="120" height="120"/>
				</g>
				<g>
					<rect x="-813.1" y="1679.4" class="st2" width="120" height="120"/>
				</g>
				<g>
					<rect x="-659.7" y="1679.4" class="st2" width="120" height="120"/>
				</g>
				<g>
					<rect x="-506.3" y="1679.4" class="st2" width="120" height="120"/>
				</g>
				<g>
					<rect x="-352.9" y="1679.4" class="st2" width="120" height="120"/>
				</g>
				<g>
					<rect x="-199.5" y="1679.4" class="st2" width="120" height="120"/>
				</g>
			</g>
			<g>
				<g>
					<rect x="-966.5" y="1832.8" class="st2" width="120" height="120"/>
				</g>
				<g>
					<rect x="-813.1" y="1832.8" class="st2" width="120" height="120"/>
				</g>
				<g>
					<rect x="-659.7" y="1832.8" class="st2" width="120" height="120"/>
				</g>
				<g>
					<rect x="-506.3" y="1832.8" class="st2" width="120" height="120"/>
				</g>
				<g>
					<rect x="-352.9" y="1832.8" class="st2" width="120" height="120"/>
				</g>
				<g>
					<rect x="-199.5" y="1832.8" class="st2" width="120" height="120"/>
				</g>
			</g>
			<g>
				<g>
					<rect x="-966.5" y="1986.2" class="st2" width="120" height="120"/>
				</g>
				<g>
					<rect x="-813.1" y="1986.2" class="st2" width="120" height="120"/>
				</g>
				<g>
					<rect x="-659.7" y="1986.2" class="st2" width="120" height="120"/>
				</g>
				<g>
					<rect x="-506.3" y="1986.2" class="st2" width="120" height="120"/>
				</g>
				<g>
					<rect x="-352.9" y="1986.2" class="st2" width="120" height="120"/>
				</g>
				<g>
					<rect x="-199.5" y="1986.2" class="st2" width="120" height="120"/>
				</g>
			</g>
		</g>
	</g>
	<g class="st1">
		<g>
			<g>
				<rect x="-969" y="2140.9" class="st2" width="120" height="120"/>
			</g>
			<g>
				<rect x="-815.6" y="2140.9" class="st2" width="120" height="120"/>
			</g>
			<g>
				<rect x="-662.2" y="2140.9" class="st2" width="120" height="120"/>
			</g>
			<g>
				<rect x="-508.8" y="2140.9" class="st2" width="120" height="120"/>
			</g>
			<g>
				<rect x="-355.4" y="2140.9" class="st2" width="120" height="120"/>
			</g>
			<g>
				<rect x="-202" y="2140.9" class="st2" width="120" height="120"/>
			</g>
			<g>
				<g>
					<rect x="-969" y="2294.3" class="st2" width="120" height="120"/>
				</g>
				<g>
					<rect x="-815.6" y="2294.3" class="st2" width="120" height="120"/>
				</g>
				<g>
					<rect x="-662.2" y="2294.3" class="st2" width="120" height="120"/>
				</g>
				<g>
					<rect x="-508.8" y="2294.3" class="st2" width="120" height="120"/>
				</g>
				<g>
					<rect x="-355.4" y="2294.3" class="st2" width="120" height="120"/>
				</g>
				<g>
					<rect x="-202" y="2294.3" class="st2" width="120" height="120"/>
				</g>
			</g>
			<g>
				<g>
					<rect x="-969" y="2447.7" class="st2" width="120" height="120"/>
				</g>
				<g>
					<rect x="-815.6" y="2447.7" class="st2" width="120" height="120"/>
				</g>
				<g>
					<rect x="-662.2" y="2447.7" class="st2" width="120" height="120"/>
				</g>
				<g>
					<rect x="-508.8" y="2447.7" class="st2" width="120" height="120"/>
				</g>
				<g>
					<rect x="-355.4" y="2447.7" class="st2" width="120" height="120"/>
				</g>
				<g>
					<rect x="-202" y="2447.7" class="st2" width="120" height="120"/>
				</g>
			</g>
			<g>
				<g>
					<rect x="-969" y="2601.1" class="st2" width="120" height="120"/>
				</g>
				<g>
					<rect x="-815.6" y="2601.1" class="st2" width="120" height="120"/>
				</g>
				<g>
					<rect x="-662.2" y="2601.1" class="st2" width="120" height="120"/>
				</g>
				<g>
					<rect x="-508.8" y="2601.1" class="st2" width="120" height="120"/>
				</g>
				<g>
					<rect x="-355.4" y="2601.1" class="st2" width="120" height="120"/>
				</g>
				<g>
					<rect x="-202" y="2601.1" class="st2" width="120" height="120"/>
				</g>
			</g>
		</g>
	</g>
	<g class="st1">
		<g>
			<g>
				<rect x="-968.5" y="2755.7" class="st2" width="120" height="120"/>
			</g>
			<g>
				<rect x="-815.1" y="2755.7" class="st2" width="120" height="120"/>
			</g>
			<g>
				<rect x="-661.7" y="2755.7" class="st2" width="120" height="120"/>
			</g>
			<g>
				<rect x="-508.3" y="2755.7" class="st2" width="120" height="120"/>
			</g>
			<g>
				<rect x="-354.9" y="2755.7" class="st2" width="120" height="120"/>
			</g>
			<g>
				<rect x="-201.5" y="2755.7" class="st2" width="120" height="120"/>
			</g>
			<g>
				<g>
					<rect x="-968.5" y="2909.1" class="st2" width="120" height="120"/>
				</g>
				<g>
					<rect x="-815.1" y="2909.1" class="st2" width="120" height="120"/>
				</g>
				<g>
					<rect x="-661.7" y="2909.1" class="st2" width="120" height="120"/>
				</g>
				<g>
					<rect x="-508.3" y="2909.1" class="st2" width="120" height="120"/>
				</g>
				<g>
					<rect x="-354.9" y="2909.1" class="st2" width="120" height="120"/>
				</g>
				<g>
					<rect x="-201.5" y="2909.1" class="st2" width="120" height="120"/>
				</g>
			</g>
			<g>
				<g>
					<rect x="-968.5" y="3062.5" class="st2" width="120" height="120"/>
				</g>
				<g>
					<rect x="-815.1" y="3062.5" class="st2" width="120" height="120"/>
				</g>
				<g>
					<rect x="-661.7" y="3062.5" class="st2" width="120" height="120"/>
				</g>
				<g>
					<rect x="-508.3" y="3062.5" class="st2" width="120" height="120"/>
				</g>
				<g>
					<rect x="-354.9" y="3062.5" class="st2" width="120" height="120"/>
				</g>
				<g>
					<rect x="-201.5" y="3062.5" class="st2" width="120" height="120"/>
				</g>
			</g>
			<g>
				<g>
					<rect x="-968.5" y="3215.9" class="st2" width="120" height="120"/>
				</g>
				<g>
					<rect x="-815.1" y="3215.9" class="st2" width="120" height="120"/>
				</g>
				<g>
					<rect x="-661.7" y="3215.9" class="st2" width="120" height="120"/>
				</g>
				<g>
					<rect x="-508.3" y="3215.9" class="st2" width="120" height="120"/>
				</g>
				<g>
					<rect x="-354.9" y="3215.9" class="st2" width="120" height="120"/>
				</g>
				<g>
					<rect x="-201.5" y="3215.9" class="st2" width="120" height="120"/>
				</g>
			</g>
		</g>
	</g>
</g>
<g id="Layer_4">
	<g>
		
			<ellipse transform="matrix(0.3202 -0.9474 0.9474 0.3202 137.3719 295.1053)" class="st3" cx="274.3" cy="51.8" rx="33.3" ry="33.3"/>
		<g>
			<path class="st4" d="M274.2,74.8L274.2,74.8c-11.8,0-21.6-8.8-22.8-20.6c-0.3-3-0.1-5.9,0.8-8.8l1-3.5l2.4,2.7
				c1.3,1.5,3.3,2.3,5.3,2c1.7-0.2,3.1-1,4.2-2.3c1-1.3,1.5-2.9,1.3-4.6c-0.2-2-1.4-3.8-3.1-4.7l-3.1-1.8l3.2-1.7
				c2.6-1.4,5.5-2.3,8.5-2.6c0.8-0.1,1.6-0.1,2.5-0.1c11.8,0,21.6,8.8,22.8,20.6c1.3,12.6-7.8,24-20.4,25.3
				C275.8,74.8,275,74.8,274.2,74.8z M255.3,49.5c-0.2,1.4-0.2,2.9,0,4.3c1,9.7,9.1,17,18.9,17l0,0c0.7,0,1.4,0,2-0.1
				c10.4-1.1,18-10.5,16.9-20.9c-1-9.7-9.1-17-18.9-17c-0.7,0-1.4,0-2,0.1c-1.4,0.2-2.9,0.5-4.2,0.9c1.3,1.5,2.1,3.5,2.4,5.5
				c0.3,2.7-0.5,5.4-2.2,7.5s-4.2,3.5-6.9,3.7C259.2,50.9,257.1,50.5,255.3,49.5z"/>
		</g>
		<g>
			<path class="st4" d="M274.2,75.8c-20.5,0-39.3-8.5-50.2-22.7l-0.9-1.2l0.9-1.2C235,36.5,253.8,28,274.2,28
				c20.5,0,39.3,8.5,50.2,22.7l0.9,1.2l-0.9,1.2C313.5,67.3,294.7,75.8,274.2,75.8z M228.1,51.9c10.4,12.5,27.5,19.9,46.1,19.9
				c18.7,0,35.8-7.4,46.1-19.9C309.9,39.4,292.8,32,274.2,32C255.5,31.9,238.4,39.4,228.1,51.9z"/>
		</g>
	</g>
	<g>
		<g>
			<g>
				<path class="st3" d="M189.2,64.1l2.6-2.6c9.3-9.3,9.3-24.4,0-33.7l-0.4-0.4c-9.3-9.3-24.4-9.3-33.7,0l-2.6,2.6l-2.6-2.6
					c-9.3-9.3-24.4-9.3-33.7,0l-0.4,0.4c-9.3,9.3-9.3,24.4,0,33.7l2.6,2.6l34.1,34.1L189.2,64.1z"/>
			</g>
			<g>
				<g>
					<g>
						<path class="st5" d="M123.9,55.4c-6.3-6.3-6.3-16.5,0-22.8l0.3-0.3c3.1-3.1,7.1-4.7,11.4-4.7v4c-3.2,0-6.3,1.3-8.6,3.6
							l-0.3,0.3c-4.7,4.7-4.7,12.4,0,17.1L123.9,55.4z"/>
					</g>
				</g>
			</g>
		</g>
		<g>
			<g>
				<polygon class="st5" points="149.1,88.7 147.9,89.9 124.8,93.8 130,71.9 131.2,70.8 				"/>
				<polygon class="st4" points="122.2,96.3 128.2,70.9 129.8,69.4 132.6,72.2 131.8,72.9 127.5,91.3 146.9,88.1 147.7,87.3 
					150.5,90.1 148.9,91.8 				"/>
			</g>
			<g>
				
					<rect x="129.4" y="41.1" transform="matrix(0.7071 -0.7071 0.7071 0.7071 10.4383 133.0869)" class="st6" width="72.9" height="25.6"/>
				<path class="st4" d="M182.7,22L198,37.3L149.3,86L134,70.6L182.7,22L182.7,22z M182.7,16.2l-54.4,54.4l21,21l54.4-54.4
					L182.7,16.2L182.7,16.2z"/>
			</g>
			<g>
				<g>
					
						<rect x="133.7" y="54.3" transform="matrix(0.7072 -0.707 0.707 0.7072 9.8676 136.4726)" class="st4" width="72.1" height="4"/>
				</g>
				<g>
					
						<rect x="127.8" y="48.4" transform="matrix(0.7072 -0.707 0.707 0.7072 12.3129 130.5779)" class="st4" width="72.1" height="4"/>
				</g>
			</g>
			<g>
				<path class="st4" d="M205.3,35.2l-2.8-2.8l3.8-3.8c-0.1-0.2-0.3-0.4-0.5-0.6l-13.9-13.9c-0.2-0.2-0.4-0.4-0.6-0.5l-3.8,3.8
					l-2.8-2.8l4.3-4.3c0.5-0.5,1.2-0.8,2-0.8l0,0c1.2,0,2.6,0.7,3.7,1.8l13.9,13.9c1.9,2,2.4,4.4,1,5.7L205.3,35.2z"/>
			</g>
			<g>
				
					<rect x="126.6" y="85.9" transform="matrix(0.7071 -0.7071 0.7071 0.7071 -25.731 117.2199)" class="st4" width="4" height="7.5"/>
			</g>
		</g>
	</g>
	<g>
		<g>
			<g>
				<path class="st5" d="M75.1,63.4c0,20-16.2,36.2-36.2,36.2S2.7,83.4,2.7,63.4s16.2-36.2,36.2-36.2C58.9,27.2,75.1,43.4,75.1,63.4
					z"/>
				<path class="st4" d="M38.9,101.6c-21.1,0-38.2-17.1-38.2-38.2s17.1-38.2,38.2-38.2s38.2,17.1,38.2,38.2
					C77.1,84.4,60,101.6,38.9,101.6z M38.9,29.2c-18.8,0-34.2,15.3-34.2,34.2c0,18.8,15.3,34.2,34.2,34.2s34.2-15.3,34.2-34.2
					C73.1,44.6,57.8,29.2,38.9,29.2z"/>
			</g>
			<g>
				<g>
					<path class="st5" d="M46.2,18.2c0,0.9-0.7,1.6-1.6,1.6H33.2c-0.9,0-1.6-0.7-1.6-1.6v-7.5c0-0.9,0.7-1.6,1.6-1.6h11.4
						c0.9,0,1.6,0.7,1.6,1.6C46.2,10.7,46.2,18.2,46.2,18.2z"/>
					<path class="st4" d="M44.6,21.7H33.2c-1,0-1.9-0.4-2.5-1c-0.7-0.7-1-1.6-1-2.5v-7.5c0-2,1.6-3.6,3.6-3.6h11.4
						c1,0,1.9,0.4,2.5,1.1c0.7,0.7,1,1.6,1,2.5v7.4C48.2,20,46.6,21.7,44.6,21.7z M33.7,17.7h10.5v-6.6H33.6L33.7,17.7z"/>
				</g>
			</g>
			<g>
				<g>
					<g>
						<g>
							<g>
								<path class="st5" d="M13.2,31.5l-2.6-3.8c-0.3-0.4-0.2-1.1,0.3-1.4l5.9-4c0.4-0.3,1.1-0.2,1.4,0.3l2.6,3.8L13.2,31.5z"/>
								<path class="st4" d="M11.5,32.7l-2.6-3.8c-0.4-0.7-0.6-1.4-0.5-2.2s0.6-1.5,1.3-1.9l5.9-4c1.4-0.9,3.2-0.6,4.1,0.8l2.6,3.8
									L19,27.5l-2-3l-4.2,2.8l2,3L11.5,32.7z"/>
							</g>
						</g>
					</g>
				</g>
			</g>
			<path class="st3" d="M60.7,63.4c0,12-9.8,21.8-21.8,21.8s-21.8-9.8-21.8-21.8s9.8-21.8,21.8-21.8S60.7,51.4,60.7,63.4z"/>
			<path class="st5" d="M51.6,63.4c0,7-5.7,12.7-12.7,12.7s-12.7-5.7-12.7-12.7s5.7-12.7,12.7-12.7C45.9,50.8,51.6,56.4,51.6,63.4z"
				/>
			<g>
				<g>
					<path class="st5" d="M38.6,33.5v5V33.5z"/>
					<rect x="36.6" y="33.5" class="st4" width="4" height="5"/>
				</g>
				<g>
					<path class="st5" d="M23.8,37.7l2.5,4.3L23.8,37.7z"/>
					<rect x="23" y="37.4" transform="matrix(0.8659 -0.5002 0.5002 0.8659 -16.6062 17.8639)" class="st4" width="4" height="5"/>
				</g>
				<g>
					<path class="st5" d="M12.9,48.8l4.3,2.5L12.9,48.8z"/>
					
						<rect x="13.1" y="47.6" transform="matrix(0.5005 -0.8657 0.8657 0.5005 -35.8173 38.0339)" class="st4" width="4" height="5"/>
				</g>
				<g>
					<path class="st5" d="M9.1,63.7h5H9.1z"/>
					<rect x="9.1" y="61.7" class="st4" width="5" height="4"/>
				</g>
				<g>
					<path class="st5" d="M13.2,78.6l4.3-2.5L13.2,78.6z"/>
					
						<rect x="12.8" y="75.3" transform="matrix(0.8662 -0.4997 0.4997 0.8662 -36.5967 18.0059)" class="st4" width="5" height="4"/>
				</g>
				<g>
					<path class="st5" d="M24.3,89.4l2.5-4.3L24.3,89.4z"/>
					
						<rect x="22.9" y="85.2" transform="matrix(0.5007 -0.8656 0.8656 0.5007 -62.8217 65.5575)" class="st4" width="5" height="4"/>
				</g>
				<g>
					<path class="st5" d="M39.2,93.3v-5V93.3z"/>
					<rect x="37.2" y="88.3" class="st4" width="4" height="5"/>
				</g>
				<g>
					<path class="st5" d="M54.1,89.1l-2.5-4.3L54.1,89.1z"/>
					
						<rect x="50.8" y="84.5" transform="matrix(0.8664 -0.4993 0.4993 0.8664 -36.3929 37.9939)" class="st4" width="4" height="5"/>
				</g>
				<g>
					<path class="st5" d="M64.9,78.1l-4.3-2.5L64.9,78.1z"/>
					<rect x="60.6" y="74.4" transform="matrix(0.5009 -0.8655 0.8655 0.5009 -35.2913 92.542)" class="st4" width="4" height="5"/>
				</g>
				<g>
					<path class="st5" d="M68.8,63.2h-5H68.8z"/>
					
						<rect x="64.2" y="60.6" transform="matrix(1.075802e-03 -1 1 1.075802e-03 3.0631 129.2101)" class="st4" width="4" height="5"/>
				</g>
				<g>
					<path class="st5" d="M64.6,48.3l-4.3,2.5L64.6,48.3z"/>
					
						<rect x="59.9" y="47.5" transform="matrix(0.8664 -0.4993 0.4993 0.8664 -16.3609 37.7574)" class="st4" width="5" height="4"/>
				</g>
				<g>
					<path class="st5" d="M53.6,37.4l-2.5,4.4L53.6,37.4z"/>
					<rect x="49.8" y="37.6" transform="matrix(0.5007 -0.8656 0.8656 0.5007 -8.1847 65.0271)" class="st4" width="5" height="4"/>
				</g>
			</g>
			<g>
				<g>
					<path class="st5" d="M42.4,63.4c0-1.9-1.6-3.5-3.5-3.5s-3.5,1.6-3.5,3.5s1.5,3.5,3.5,3.5C40.8,66.9,42.4,65.3,42.4,63.4z"/>
					<path class="st4" d="M38.9,68.9L38.9,68.9c-3,0-5.5-2.5-5.5-5.5c0-1.5,0.6-2.8,1.6-3.9c1-1,2.4-1.6,3.9-1.6
						c3,0,5.5,2.5,5.5,5.5S41.9,68.9,38.9,68.9z M38.9,61.9c-0.4,0-0.8,0.2-1,0.4c-0.3,0.3-0.4,0.6-0.4,1c0,0.8,0.7,1.5,1.5,1.5l0,0
						c0.8,0,1.5-0.7,1.5-1.5C40.4,62.6,39.7,61.9,38.9,61.9z"/>
				</g>
			</g>
			<g>
				<rect x="36.9" y="19.5" class="st4" width="4" height="5.5"/>
			</g>
		</g>
		<g>
			<g>
				<polygon class="st6" points="71.9,29.7 69.2,21.3 84.8,5.7 87.6,14 				"/>
				<polygon class="st6" points="71.9,29.7 80.2,32.3 95.8,16.7 87.6,14 				"/>
			</g>
			<g>
				<g>
					<path class="st4" d="M71.1,33.3l-4.2-12.5L85.7,2l4.2,12.5L71.1,33.3z M71.5,22l1.3,4l12.5-12.5l-1.3-4L71.5,22z"/>
				</g>
				<g>
					<path class="st4" d="M80.7,34.7l-12.5-4.1L87,11.7l12.5,4.2L80.7,34.7z M75.6,28.7l4,1.3l12.5-12.5l-4-1.3L75.6,28.7z"/>
				</g>
			</g>
			<g>
				<path class="st4" d="M41.5,62.2c-0.5,0-1-0.2-1.4-0.6c-0.8-0.8-0.8-2,0-2.8l48.4-48.5c0.8-0.8,2-0.8,2.8,0s0.8,2,0,2.8
					L42.9,61.6C42.5,61.9,42,62.2,41.5,62.2z"/>
			</g>
		</g>
	</g>
</g>
</svg>
