<svg xmlns="http://www.w3.org/2000/svg" id="Слой_1" viewBox="0 0 265.2 112.1" width="265.2" height="112.1"><style>.st0{enable-background:new}.st1{fill:#121315}.st2{fill:#0d0e0f}.st3{fill:#1c0fd5}</style><g transform="translate(-36 -139)"><g class="st0"><path d="M51.6 170.4c-1.4 4-3.4 8.5-6.6 11.7-.8.7-1.6 1.5-2.5 2-2.2 1.2-4.7.2-4.4-2.6.4-3.7 6.2-8 10.2-11 1.8-5.8 2.1-7.2 2.2-7.5.4-.9 2.7-1 2.7.2 0 .6-.7 3.9-1.2 5.9 2.1-1.3 3.9-2.5 4.5-2.7.9-.4 1.5.1.3.7-.5.2-4.3 2.6-5.2 3.3zm-8.4 10.1c2.3-2.4 3.7-5.6 4.8-8.4-1.8.9-5.9 4.1-7.5 6.9-2 3-.6 4.7 2.7 1.5zm8-20.6c0-1.4 2.4-1.8 2.4-.1-.1 1.2-2.4 1.6-2.4.1z" class="st1"/><path d="M66.7 164.7c-1.9 2-3.9 3.7-6 4.9-1.9 1-4.1 1.8-4.9-.7-.6-1.9 1.6-5.5 3.2-7.1 1.5-1.4 3.7-.4 2.7.7-1.2 1.4-2 2.7-2.7 4.2-2.1 4.4 1.9 1.5 3.2.6 1.9-1.5 4.3-3.6 5.8-5.4 1.1-1 3.4-.7 2.8 1-.6 1.9-5.4 10.4-1.5 6.9.6-.6 2.7-2.6 3.8-3.9 1-1.2 1.4-.5.8.3-.7 1.1-3.4 4-4.8 4.9-.9.6-1.8.9-2.5.8-2.6-.4-1.4-4.1-.7-5.5l.8-1.7z" class="st1"/><path d="M80.7 165.3c1-.5 1.1.2.4.5l-4.3 2.8c.1 2.8-.1 6.3-2.1 8.9-1.3 1.7-3.4 3.5-6 3.7-3.5.2-3.5-3.7-2.1-5.7 1.7-2.5 4.9-4.4 7.2-6.1-.1-1.6-.7-3.3-.7-5 0-2.3 1.2-4.3 3.5-4.4 1.1 0 1.4.4.6.7-2.4.9-.5 4.2-.5 7 1.3-.5 2.8-1.8 4-2.4zm-13.9 12.3c-.3 1.3.5 1.9 1.4 1.9 3.4 0 5.7-5.7 5.7-9-2.5 1.8-6.3 4.1-7.1 7.1z" class="st1"/><path d="M91.4 155.8c-1.5 0-2.8.1-4.3.1-2.4 4.5-5.1 9.8-6 12.6-.6 2-.6 3.6 1.6 2 1.8-1.3 4.3-4.1 5-4.9.7-.9 1.9-.7.7.5-1.6 1.9-4.9 5.6-7 6.2-2.3.6-3.2-1.7-2.7-4.2.8-3.7 2.9-8.3 4.9-12.3h-2.5c-1.5 0-.7-1 0-1h3.2c1.4-2.7 2.8-4.9 3.7-6.1.9-1.2 3.8-1.3 3.3.1-.8 1.2-2.1 3.4-3.5 6h3.7c1.6-.2 1.6.9-.1 1z" class="st1"/></g><path d="M74.1 241.6v-8.8H74c-3.4 6.2-8.4 9.3-15.1 9.3-3.2.1-6.3-.8-9.1-2.4-2.5-1.4-4.6-3.5-5.9-6-1.3-2.5-2-6.5-2-12.1V202c.1-1.6-.3-3.2-1.2-4.5-.8-1-2.3-1.5-4.5-1.5v-.9H58v.9c-2.4 0-3.9.6-4.7 1.6-.8 1.3-1.1 2.9-1.1 4.4v20.7c-.1 2.5.3 4.9 1.1 7.2.5 1.3 1.2 2.4 2.2 3.3 1 .9 2.1 1.6 3.3 2.1 1.3.5 2.6.7 4 .7s2.8-.3 4.2-.8c1.3-.5 2.5-1.3 3.6-2.2 1-.9 1.8-2 2.4-3.3.9-2.7 1.3-5.6 1.2-8.5V202c0-2.2-.5-3.8-1.3-4.7s-2.4-1.4-4.4-1.4v-.8h21.8v.9c-2.4 0-3.9.6-4.6 1.6-.8 1.3-1.2 2.9-1.1 4.4v32.7c-.1 1.6.3 3.2 1.3 4.6.8 1 2.3 1.5 4.5 1.5v.8H74.1z" class="st2"/><path d="M103.5 195.1l28.4 30v-21.3c0-2.8-.6-4.7-1.7-5.8a9.06 9.06 0 0 0-5.2-2v-.9h16.1v.9c-1.4 0-2.8.5-3.9 1.4-.8.7-1.4 1.6-1.7 2.7-.3 1.2-.4 2.4-.4 3.6v38.4h-1.2l-34-35.8v26.2c-.1 2 .4 3.9 1.4 5.6.9 1.5 2.7 2.4 5.2 2.6v.9H89.8v-.9c4.6-.4 7-2.6 6.9-6.9V203c-.2-.1-.4-.3-.5-.5l-.9-.9c-.5-.4-.8-.8-1.2-1.2-2.8-2.7-5.3-4.2-7.4-4.5v-.9l16.8.1z" class="st2"/><path d="M137.4 196v-.8h21.8v.9c-2.4 0-4 .6-4.7 1.7-.8 1.3-1.1 2.8-1.1 4.4v32.7c0 .9.1 1.9.3 2.8.2.9.8 1.7 1.5 2.2 1.1.7 2.4 1.1 3.7 1h.2v.9h-21.8v-.9c2.4 0 3.9-.6 4.7-1.6.8-1.3 1.1-2.8 1.1-4.4V202c0-2.1-.5-3.7-1.4-4.6-1.2-1.1-2.7-1.6-4.3-1.4z" class="st2"/><path d="M191 241l3.9 2.5c.6.4 1.2.7 1.9 1 .8.3 1.6.4 2.4.4 1.4 0 2.9-.8 4.5-2.4l1 .7c-1.2 2-2.7 3.8-4.5 5.4-2 1.7-4.6 2.6-7.3 2.5-1.8 0-3.7-.3-5.4-1-2.3-1-4.5-2.1-6.5-3.4-4-2.5-7.1-4.5-9.1-6-1.7-.8-3.3-1.6-4.9-2.5-1.3-.9-2.5-1.9-3.6-3-2.1-2.2-3.7-4.9-4.7-7.7-1-2.9-1.5-5.9-1.5-9 0-3.1.5-6.2 1.6-9 1-2.8 2.7-5.4 4.7-7.7 2.2-2.3 4.8-4.1 7.7-5.2 3.3-1.3 6.8-2 10.3-1.9 3.5 0 7 .6 10.2 1.9 2.9 1.2 5.5 2.9 7.7 5.2 2 2.2 3.6 4.7 4.7 7.5s1.6 5.7 1.6 8.7c0 2.1-.2 4.2-.7 6.2-.5 2.1-1.2 4-2.2 5.9-.9 1.8-2.1 3.5-3.5 5-1.3 1.4-2.7 2.6-4.4 3.6-1.5.8-3 1.6-4.6 2.2.3-.1.5 0 .7.1zm3.7-23.4c0-1.7-.1-3.6-.3-5.6-.2-2.2-.7-4.3-1.5-6.4-.8-2.3-2.2-4.3-4-5.9-2.1-1.7-4.7-2.6-7.4-2.5-5.3 0-8.9 2.2-10.6 6.6-3.3 9.4-3.4 19.6-.2 29 1.6 4.5 5.1 6.8 10.7 6.8 2.1 0 4.1-.5 5.9-1.6 1.6-.9 3-2.3 4-3.9 2.3-3.5 3.4-9.1 3.4-16.5zm46.5 24v-8.8h-.1c-3.4 6.2-8.4 9.3-15.1 9.3-3.2.1-6.3-.8-9.1-2.4-2.5-1.4-4.6-3.5-5.9-6-1.3-2.5-2-6.5-2-12.1V202c.1-1.6-.3-3.2-1.2-4.5-.8-1-2.3-1.5-4.5-1.5v-.9H225v.9c-2.4 0-3.9.6-4.7 1.6-.8 1.3-1.1 2.9-1.1 4.4v20.7c-.1 2.5.3 4.9 1.1 7.2.5 1.3 1.2 2.4 2.2 3.3 1 .9 2.1 1.6 3.3 2.1 1.3.5 2.6.7 4 .7s2.8-.3 4.2-.8c1.3-.5 2.5-1.3 3.6-2.2 1-.9 1.8-2 2.4-3.3.9-2.7 1.3-5.6 1.2-8.5V202c0-2.2-.5-3.8-1.3-4.7s-2.4-1.4-4.4-1.4v-.8h21.8v.9c-2.4 0-3.9.6-4.6 1.6-.8 1.3-1.1 2.9-1.1 4.4v32.7c-.1 1.6.3 3.2 1.3 4.6.8 1 2.3 1.5 4.5 1.5v.8h-16.2z" class="st2"/><path d="M287.4 195.1l.4 10.4h-.9c-.3-1.5-.8-2.9-1.4-4.3-.5-1.1-1.2-2-2.2-2.6-1.2-.7-2.5-1-3.9-.9H270v19.6h7.5c2.2 0 3.9-.5 4.9-1.5 1.1-1.2 1.7-2.8 1.8-4.4h.9V225h-.9c-.3-2-1.1-3.4-2.3-4.1-1.3-.7-2.8-1.1-4.4-1H270v13.4c0 3.9 2 5.8 6 5.8h2.8c1.6.1 3.2-.2 4.7-.7 1.2-.5 2.3-1.4 3-2.6.9-1.6 1.7-3.4 2.1-5.2h.9l-.7 11.2h-35.1v-.9c2.5 0 4-.6 4.7-1.7.8-1.3 1.1-2.8 1.1-4.4v-32.6c.1-1.5-.3-3-1-4.3-.6-1.2-2.2-1.8-4.5-1.8h-.3v-.9h33.7z" class="st2"/><circle fill="blue" cx="297.6" cy="237.9" r="3.5" class="st3"/></g></svg>