<svg xmlns="http://www.w3.org/2000/svg" width="265.18" height="112.11" viewBox="0 0 265.18 112.11"><g transform="translate(-36 -139)"><text fill="#121315" font-family="Purple Pen" font-size="49" transform="translate(49.644 178)"><tspan x="0" y="0" class="just">just</tspan></text><g fill="#0d0e0f"><path d="M74.083 241.649v-8.813h-.139c-3.386 6.216-8.442 9.323-15.122 9.323a17.482 17.482 0 0 1-9.092-2.366 14.822 14.822 0 0 1-5.937-6.03c-1.345-2.5-2.041-6.54-2.041-12.107v-19.62a7.229 7.229 0 0 0-1.206-4.5c-.789-1.02-2.319-1.53-4.546-1.53v-.928h21.848v.928c-2.412 0-3.943.557-4.685 1.624a8.147 8.147 0 0 0-1.063 4.406v20.734a19.094 19.094 0 0 0 1.113 7.236 9.185 9.185 0 0 0 2.227 3.34 10.531 10.531 0 0 0 3.34 2.134 11.488 11.488 0 0 0 3.989.742 11.7 11.7 0 0 0 4.175-.789 11.019 11.019 0 0 0 3.572-2.227 9.748 9.748 0 0 0 2.412-3.293 23.7 23.7 0 0 0 1.16-8.489v-19.388c0-2.227-.464-3.757-1.345-4.685s-2.366-1.392-4.407-1.392v-.835h21.842v.928c-2.366 0-3.943.557-4.639 1.623a7.657 7.657 0 0 0-1.066 4.403v32.66a7.137 7.137 0 0 0 1.252 4.592c.835.974 2.319 1.484 4.5 1.484v.835z"/><path d="M103.537 195.124l28.388 29.965v-21.291c0-2.783-.557-4.731-1.716-5.752a9.778 9.778 0 0 0-5.2-2.041v-.928h16.054v.928a6.715 6.715 0 0 0-3.943 1.438 5.079 5.079 0 0 0-1.667 2.688 16.385 16.385 0 0 0-.371 3.618v38.361h-1.209L99.826 206.3v26.211a10.718 10.718 0 0 0 1.392 5.613c.928 1.531 2.69 2.412 5.2 2.6v.928H89.807v-.928c4.639-.371 6.958-2.644 6.911-6.865v-30.8a3.8 3.8 0 0 1-.51-.464l-.928-.928c-.464-.417-.835-.789-1.206-1.16-2.83-2.737-5.288-4.221-7.422-4.546v-.93h16.884z"/><path d="M137.398 195.959v-.835h21.848v.928c-2.412 0-3.989.557-4.685 1.67a8.086 8.086 0 0 0-1.067 4.36v32.655a12.853 12.853 0 0 0 .278 2.783 4.051 4.051 0 0 0 1.484 2.226 5.821 5.821 0 0 0 3.711.974h.232v.928h-21.847v-.924c2.412 0 3.943-.557 4.685-1.623a8.087 8.087 0 0 0 1.067-4.36v-32.7c0-2.134-.464-3.711-1.392-4.639a5.7 5.7 0 0 0-4.314-1.443z"/><path d="M191.02 241.046l3.943 2.5a8.091 8.091 0 0 0 1.9.974 6.755 6.755 0 0 0 2.412.417c1.438 0 2.922-.789 4.5-2.366l.974.7a23.143 23.143 0 0 1-4.5 5.381 10.642 10.642 0 0 1-7.283 2.458 13.889 13.889 0 0 1-5.381-1.02 48.534 48.534 0 0 1-6.54-3.433c-3.989-2.458-7.051-4.453-9.138-5.984a57.825 57.825 0 0 1-4.87-2.5 18.885 18.885 0 0 1-3.618-3.015 21.7 21.7 0 0 1-4.685-7.746 26.906 26.906 0 0 1-1.531-8.952 25.813 25.813 0 0 1 1.624-9.045 22.54 22.54 0 0 1 4.731-7.654 22.228 22.228 0 0 1 7.7-5.242 27.046 27.046 0 0 1 10.347-1.905 26.494 26.494 0 0 1 10.2 1.9 21.325 21.325 0 0 1 7.654 5.2 22.829 22.829 0 0 1 4.685 7.468 23.949 23.949 0 0 1 1.577 8.674 25.777 25.777 0 0 1-.742 6.169 22.978 22.978 0 0 1-2.174 5.889 23.784 23.784 0 0 1-3.479 4.963 19.294 19.294 0 0 1-4.36 3.618 35.165 35.165 0 0 1-4.592 2.18 6.71 6.71 0 0 1 .646.371zm3.711-23.425c0-1.716-.093-3.572-.278-5.613a25.517 25.517 0 0 0-1.531-6.4 14.482 14.482 0 0 0-3.989-5.891 10.706 10.706 0 0 0-7.422-2.458c-5.334 0-8.86 2.227-10.576 6.633a43.948 43.948 0 0 0-.186 28.991c1.577 4.5 5.149 6.772 10.715 6.772a11.18 11.18 0 0 0 5.937-1.623 11.376 11.376 0 0 0 3.989-3.85q3.341-5.428 3.341-16.561zm46.479 24.028v-8.813h-.139c-3.386 6.216-8.442 9.323-15.122 9.323a17.482 17.482 0 0 1-9.092-2.366 14.821 14.821 0 0 1-5.937-6.03c-1.345-2.5-2.041-6.54-2.041-12.107v-19.62a7.229 7.229 0 0 0-1.206-4.5c-.789-1.02-2.319-1.531-4.546-1.531v-.927h21.848v.928c-2.412 0-3.943.557-4.685 1.624a8.146 8.146 0 0 0-1.067 4.407v20.733a19.093 19.093 0 0 0 1.113 7.236 9.185 9.185 0 0 0 2.227 3.34 10.531 10.531 0 0 0 3.34 2.134 11.487 11.487 0 0 0 3.989.742 11.7 11.7 0 0 0 4.175-.789 11.018 11.018 0 0 0 3.572-2.227 9.748 9.748 0 0 0 2.412-3.293 23.7 23.7 0 0 0 1.16-8.489v-19.388c0-2.227-.464-3.757-1.345-4.685s-2.366-1.392-4.407-1.392v-.835h21.848v.928c-2.366 0-3.943.557-4.639 1.623a8.037 8.037 0 0 0-1.067 4.407v32.656a7.137 7.137 0 0 0 1.252 4.592c.835.974 2.319 1.484 4.5 1.484v.835z"/><path d="M287.363 195.124l.371 10.437h-.928a23.636 23.636 0 0 0-1.392-4.314 6.035 6.035 0 0 0-2.18-2.6 7.132 7.132 0 0 0-3.9-.881h-9.37v19.577h7.47c2.227 0 3.85-.51 4.87-1.484a6.535 6.535 0 0 0 1.763-4.407h.928v13.591h-.928c-.325-2.041-1.067-3.433-2.319-4.128a8.662 8.662 0 0 0-4.36-1.02h-7.468V233.3c0 3.9 1.995 5.8 5.984 5.8h2.83a12.242 12.242 0 0 0 4.685-.742 6.748 6.748 0 0 0 3.015-2.6 20.592 20.592 0 0 0 2.134-5.242h.928l-.7 11.179h-35.062v-.928q3.688 0 4.731-1.67a8.086 8.086 0 0 0 1.067-4.36v-32.613a8.726 8.726 0 0 0-.974-4.314c-.649-1.16-2.18-1.763-4.5-1.763h-.324v-.923z"/></g><circle cx="3.54" cy="3.54" r="3.54" fill="#1c0fd5" transform="translate(294.095 234.375)"/></g></svg>