<svg xmlns="http://www.w3.org/2000/svg"><symbol id="ftr-3" viewBox="0 0 122.11 86.7"><ellipse cx="39.79" cy="39.79" fill="#abd2ca" rx="39.79" ry="39.79" transform="rotate(-84.608 52.4 29.864)"/><path fill="#282d33" d="M61.057 70.784A27.262 27.262 0 0 1 33.815 46.17a26.1 26.1 0 0 1 .956-10.515l1.195-4.182 2.868 3.226a7.051 7.051 0 0 0 6.333 2.39 7.569 7.569 0 0 0 5.018-2.748 7.485 7.485 0 0 0 1.553-5.5 7.211 7.211 0 0 0-3.7-5.616l-3.7-2.151 3.823-2.031a27.183 27.183 0 0 1 10.156-3.107 24 24 0 0 1 2.979-.115 27.5 27.5 0 0 1 2.868 54.843 29.15 29.15 0 0 1-3.107.12zm-22.583-30.23a18.5 18.5 0 0 0 0 5.138 22.586 22.586 0 0 0 22.583 20.312 15.235 15.235 0 0 0 2.39-.119 22.705 22.705 0 0 0-2.39-45.284 15.234 15.234 0 0 0-2.39.119 33.986 33.986 0 0 0-5.018 1.075 13.1 13.1 0 0 1 2.868 6.572 12.12 12.12 0 0 1-2.629 8.961 11.852 11.852 0 0 1-8.244 4.421 10.623 10.623 0 0 1-7.17-1.195z"/><path fill="#282d33" d="M61.056 71.978c-24.494 0-46.957-10.156-59.981-27.123L0 43.422l1.075-1.434c13.144-16.967 35.607-27.123 59.981-27.123 24.494 0 46.957 10.156 59.981 27.123l1.075 1.434-1.075 1.434c-13.023 16.966-35.486 27.122-59.981 27.122zM5.974 43.422C18.4 58.358 38.832 67.199 61.056 67.199c22.344 0 42.775-8.842 55.082-23.777-12.426-14.936-32.858-23.777-55.082-23.777-22.343-.12-42.775 8.841-55.082 23.777z"/></symbol><symbol id="ftr-2" viewBox="0 0 118.26 105.98"><path fill="#1c0fd5" d="M92.929 65.239l3.106-3.11a28.485 28.485 0 0 0 0-40.266l-.478-.478a28.485 28.485 0 0 0-40.266 0l-3.107 3.107-3.109-3.104a28.485 28.485 0 0 0-40.266 0l-.478.478a28.485 28.485 0 0 0 0 40.266l3.107 3.107 40.744 40.744z"/><path fill="#fff" d="M14.906 54.844a19.255 19.255 0 0 1 0-27.242l.358-.358a18.966 18.966 0 0 1 13.621-5.617v4.779a14.573 14.573 0 0 0-10.276 4.3l-.358.358a14.5 14.5 0 0 0 0 20.432zm30.11 39.788l-1.434 1.434-27.6 4.66 6.213-26.048 1.433-1.434z"/><path fill="#282d33" d="M12.874 103.712l7.169-30.229 1.912-1.912 3.346 3.346-.956.956-5.138 21.866 23.18-3.823.956-.956 3.346 3.346-1.912 2.031z"/><path fill="#abd2ca" d="M23.502 73.068l61.589-61.589 21.63 21.63L45.132 94.7z"/><path fill="#282d33" d="M85.163 14.936l18.28 18.281-58.188 58.188-18.281-18.28 58.189-58.189zm0-6.811l-65 65 25.092 25.092 65-65L85.163 8.125z"/><path fill="#282d33" d="M37.551 84.799l60.908-60.908 3.38 3.38L40.93 88.177zm-7.046-7.057l60.908-60.908 3.38 3.38L33.884 81.12zm81.661-47.035l-3.346-3.346 4.54-4.54a3.168 3.168 0 0 0-.6-.717L96.152 5.5a3.167 3.167 0 0 0-.717-.6l-4.54 4.54-3.343-3.346L92.69.956A3.336 3.336 0 0 1 95.08 0a6.729 6.729 0 0 1 4.421 2.151l16.608 16.608c2.27 2.39 2.868 5.257 1.195 6.811zM15.72 94.292l3.38-3.38 6.336 6.336-3.38 3.38z"/></symbol><symbol id="ftr-1" viewBox="0 0 118.05 118.89"><path fill="#fff" d="M88.897 73.244a43.253 43.253 0 1 1-43.254-43.253 43.242 43.242 0 0 1 43.254 43.253z"/><path fill="#282d33" d="M45.643 118.887a45.643 45.643 0 1 1 45.643-45.643 45.639 45.639 0 0 1-45.643 45.643zm0-86.387a40.864 40.864 0 1 0 40.864 40.864 40.922 40.922 0 0 0-40.864-40.863z"/><path fill="#fff" d="M54.365 19.238a1.887 1.887 0 0 1-1.912 1.912H38.832a1.887 1.887 0 0 1-1.912-1.912v-8.842a1.887 1.887 0 0 1 1.912-1.912h13.621a1.887 1.887 0 0 1 1.912 1.912z"/><path fill="#282d33" d="M52.45 23.419H38.832a4.244 4.244 0 0 1-2.987-1.195 4.148 4.148 0 0 1-1.195-2.987v-8.843a4.284 4.284 0 0 1 4.3-4.3h13.623a3.883 3.883 0 0 1 2.987 1.314 4.148 4.148 0 0 1 1.19 2.986v8.842a4.259 4.259 0 0 1-4.3 4.183zM39.429 18.64h12.546v-7.886H39.31z"/><path fill="#fff" d="M14.935 35.248l-3.107-4.54a1.2 1.2 0 0 1 .358-1.673l7.05-4.779a1.2 1.2 0 0 1 1.673.358l3.107 4.54z"/><path fill="#282d33" d="M12.904 36.563l-3.109-4.54a4.091 4.091 0 0 1-.6-2.629 3.089 3.089 0 0 1 1.553-2.27l7.05-4.779a3.48 3.48 0 0 1 4.9.956l3.107 4.54-3.94 2.629-2.39-3.585-5.018 3.346 2.39 3.585z"/><path fill="#abd2ca" d="M71.695 73.245a26.048 26.048 0 1 1-26.052-26.048 26.109 26.109 0 0 1 26.052 26.048z"/><path fill="#fff" d="M60.817 73.244A15.174 15.174 0 1 1 45.642 58.07a15.2 15.2 0 0 1 15.175 15.174z"/><path fill="#282d33" d="M42.895 37.638h4.78v5.97h-4.78z"/><path fill="#fff" d="M27.602 42.537l2.987 5.138z"/><path fill="#282d33" d="M25.475 43.782l4.139-2.391 2.986 5.17-4.139 2.39z"/><path fill="#fff" d="M14.577 55.8l5.138 2.987z"/><path fill="#282d33" d="M13.418 57.825l2.392-4.138 5.169 2.988-2.393 4.138zm-3.381 13.388h5.97v4.78h-5.97z"/><path fill="#fff" d="M14.936 91.405l5.138-2.987z"/><path fill="#282d33" d="M13.751 89.284l5.171-2.983 2.389 4.14-5.171 2.983z"/><path fill="#fff" d="M28.198 104.31l2.987-5.138z"/><path fill="#282d33" d="M26.019 103.112l2.99-5.168 4.137 2.394-2.99 5.167zm17.593-.116h4.78v5.97h-4.78z"/><path fill="#fff" d="M63.805 103.952l-2.987-5.138z"/><path fill="#282d33" d="M58.718 100.061l4.141-2.387 2.981 5.173-4.141 2.387z"/><path fill="#fff" d="M76.709 90.808l-5.138-2.987z"/><path fill="#282d33" d="M70.271 89.915l2.395-4.135 5.164 2.991-2.395 4.135zm5.026-14.623l.005-4.78 5.97.006-.005 4.78z"/><path fill="#fff" d="M76.351 55.202l-5.138 2.987z"/><path fill="#282d33" d="M70.053 56.037l5.176-2.979 2.385 4.144-5.176 2.98z"/><path fill="#fff" d="M63.208 42.178l-2.987 5.257z"/><path fill="#282d33" d="M58.107 46.264l2.99-5.168 4.137 2.394-2.99 5.167z"/><path fill="#fff" d="M49.825 73.244a4.182 4.182 0 1 0-8.364 0 4.156 4.156 0 0 0 4.182 4.182 4.233 4.233 0 0 0 4.182-4.182z"/><path fill="#282d33" d="M45.643 79.815a6.63 6.63 0 0 1-6.572-6.571 6.813 6.813 0 0 1 1.912-4.66 6.579 6.579 0 1 1 4.66 11.232zm0-8.364a1.825 1.825 0 0 0-1.195.478 1.534 1.534 0 0 0-.478 1.195 1.838 1.838 0 0 0 1.792 1.792 1.838 1.838 0 0 0 1.792-1.792 2.043 2.043 0 0 0-1.911-1.673zm-2.39-50.66h4.78v6.57h-4.78z"/><g fill="#1c0fd5"><path d="M85.073 32.978l-3.226-9.917 18.64-18.64 3.346 9.917z"/><path d="M85.073 32.978l9.917 3.226 18.64-18.64-9.8-3.226z"/></g><path fill="#282d33" d="M84.117 37.4l-5.018-14.937L101.562 0l5.018 14.936zm.482-13.623l1.553 4.779 14.936-14.936-1.553-4.779z"/><path fill="#282d33" d="M95.588 38.952l-14.936-4.899 22.463-22.463 14.937 5.018zm-6.094-7.05l4.779 1.553 14.936-14.935-4.779-1.553z"/><path fill="#282d33" d="M48.75 71.81a2.359 2.359 0 0 1-1.673-.717 2.31 2.31 0 0 1 0-3.346l57.83-57.83a2.366 2.366 0 1 1 3.346 3.346l-57.83 57.83a2.359 2.359 0 0 1-1.673.717z"/></symbol></svg>