<svg xmlns="http://www.w3.org/2000/svg"><symbol id="ftr-2" viewBox="0 0 118.26 105.98"><path fill="#1c0fd5" d="M92.929 65.239l3.106-3.11a28.485 28.485 0 0 0 0-40.266l-.478-.478a28.485 28.485 0 0 0-40.266 0l-3.107 3.107-3.109-3.104a28.485 28.485 0 0 0-40.266 0l-.478.478a28.485 28.485 0 0 0 0 40.266l3.107 3.107 40.744 40.744z"/><path fill="#fff" d="M14.906 54.844a19.255 19.255 0 0 1 0-27.242l.358-.358a18.966 18.966 0 0 1 13.621-5.617v4.779a14.573 14.573 0 0 0-10.276 4.3l-.358.358a14.5 14.5 0 0 0 0 20.432zm30.11 39.788l-1.434 1.434-27.6 4.66 6.213-26.048 1.433-1.434z"/><path fill="#282d33" d="M12.874 103.712l7.169-30.229 1.912-1.912 3.346 3.346-.956.956-5.138 21.866 23.18-3.823.956-.956 3.346 3.346-1.912 2.031z"/><path fill="#abd2ca" d="M23.502 73.068l61.589-61.589 21.63 21.63L45.132 94.7z"/><path fill="#282d33" d="M85.163 14.936l18.28 18.281-58.188 58.188-18.281-18.28 58.189-58.189zm0-6.811l-65 65 25.092 25.092 65-65L85.163 8.125z"/><path fill="#282d33" d="M37.551 84.799l60.908-60.908 3.38 3.38L40.93 88.177zm-7.046-7.057l60.908-60.908 3.38 3.38L33.884 81.12zm81.661-47.035l-3.346-3.346 4.54-4.54a3.168 3.168 0 0 0-.6-.717L96.152 5.5a3.167 3.167 0 0 0-.717-.6l-4.54 4.54-3.343-3.346L92.69.956A3.336 3.336 0 0 1 95.08 0a6.729 6.729 0 0 1 4.421 2.151l16.608 16.608c2.27 2.39 2.868 5.257 1.195 6.811zM15.72 94.292l3.38-3.38 6.336 6.336-3.38 3.38z"/></symbol><symbol id="ftr-3" viewBox="0 0 122.11 86.7"><ellipse cx="39.79" cy="39.79" fill="#abd2ca" rx="39.79" ry="39.79" transform="rotate(-84.608 52.4 29.864)"/><path fill="#282d33" d="M61.057 70.784A27.262 27.262 0 0 1 33.815 46.17a26.1 26.1 0 0 1 .956-10.515l1.195-4.182 2.868 3.226a7.051 7.051 0 0 0 6.333 2.39 7.569 7.569 0 0 0 5.018-2.748 7.485 7.485 0 0 0 1.553-5.5 7.211 7.211 0 0 0-3.7-5.616l-3.7-2.151 3.823-2.031a27.183 27.183 0 0 1 10.156-3.107 24 24 0 0 1 2.979-.115 27.5 27.5 0 0 1 2.868 54.843 29.15 29.15 0 0 1-3.107.12zm-22.583-30.23a18.5 18.5 0 0 0 0 5.138 22.586 22.586 0 0 0 22.583 20.312 15.235 15.235 0 0 0 2.39-.119 22.705 22.705 0 0 0-2.39-45.284 15.234 15.234 0 0 0-2.39.119 33.986 33.986 0 0 0-5.018 1.075 13.1 13.1 0 0 1 2.868 6.572 12.12 12.12 0 0 1-2.629 8.961 11.852 11.852 0 0 1-8.244 4.421 10.623 10.623 0 0 1-7.17-1.195z"/><path fill="#282d33" d="M61.056 71.978c-24.494 0-46.957-10.156-59.981-27.123L0 43.422l1.075-1.434c13.144-16.967 35.607-27.123 59.981-27.123 24.494 0 46.957 10.156 59.981 27.123l1.075 1.434-1.075 1.434c-13.023 16.966-35.486 27.122-59.981 27.122zM5.974 43.422C18.4 58.358 38.832 67.199 61.056 67.199c22.344 0 42.775-8.842 55.082-23.777-12.426-14.936-32.858-23.777-55.082-23.777-22.343-.12-42.775 8.841-55.082 23.777z"/></symbol><symbol id="ftr-1" viewBox="0 0 118.05 118.89"><path fill="#fff" d="M88.897 73.244a43.253 43.253 0 1 1-43.254-43.253 43.242 43.242 0 0 1 43.254 43.253z"/><path fill="#282d33" d="M45.643 118.887a45.643 45.643 0 1 1 45.643-45.643 45.639 45.639 0 0 1-45.643 45.643zm0-86.387a40.864 40.864 0 1 0 40.864 40.864 40.922 40.922 0 0 0-40.864-40.863z"/><path fill="#fff" d="M54.365 19.238a1.887 1.887 0 0 1-1.912 1.912H38.832a1.887 1.887 0 0 1-1.912-1.912v-8.842a1.887 1.887 0 0 1 1.912-1.912h13.621a1.887 1.887 0 0 1 1.912 1.912z"/><path fill="#282d33" d="M52.45 23.419H38.832a4.244 4.244 0 0 1-2.987-1.195 4.148 4.148 0 0 1-1.195-2.987v-8.843a4.284 4.284 0 0 1 4.3-4.3h13.623a3.883 3.883 0 0 1 2.987 1.314 4.148 4.148 0 0 1 1.19 2.986v8.842a4.259 4.259 0 0 1-4.3 4.183zM39.429 18.64h12.546v-7.886H39.31z"/><path fill="#fff" d="M14.935 35.248l-3.107-4.54a1.2 1.2 0 0 1 .358-1.673l7.05-4.779a1.2 1.2 0 0 1 1.673.358l3.107 4.54z"/><path fill="#282d33" d="M12.904 36.563l-3.109-4.54a4.091 4.091 0 0 1-.6-2.629 3.089 3.089 0 0 1 1.553-2.27l7.05-4.779a3.48 3.48 0 0 1 4.9.956l3.107 4.54-3.94 2.629-2.39-3.585-5.018 3.346 2.39 3.585z"/><path fill="#abd2ca" d="M71.695 73.245a26.048 26.048 0 1 1-26.052-26.048 26.109 26.109 0 0 1 26.052 26.048z"/><path fill="#fff" d="M60.817 73.244A15.174 15.174 0 1 1 45.642 58.07a15.2 15.2 0 0 1 15.175 15.174z"/><path fill="#282d33" d="M42.895 37.638h4.78v5.97h-4.78z"/><path fill="#fff" d="M27.602 42.537l2.987 5.138z"/><path fill="#282d33" d="M25.475 43.782l4.139-2.391 2.986 5.17-4.139 2.39z"/><path fill="#fff" d="M14.577 55.8l5.138 2.987z"/><path fill="#282d33" d="M13.418 57.825l2.392-4.138 5.169 2.988-2.393 4.138zm-3.381 13.388h5.97v4.78h-5.97z"/><path fill="#fff" d="M14.936 91.405l5.138-2.987z"/><path fill="#282d33" d="M13.751 89.284l5.171-2.983 2.389 4.14-5.171 2.983z"/><path fill="#fff" d="M28.198 104.31l2.987-5.138z"/><path fill="#282d33" d="M26.019 103.112l2.99-5.168 4.137 2.394-2.99 5.167zm17.593-.116h4.78v5.97h-4.78z"/><path fill="#fff" d="M63.805 103.952l-2.987-5.138z"/><path fill="#282d33" d="M58.718 100.061l4.141-2.387 2.981 5.173-4.141 2.387z"/><path fill="#fff" d="M76.709 90.808l-5.138-2.987z"/><path fill="#282d33" d="M70.271 89.915l2.395-4.135 5.164 2.991-2.395 4.135zm5.026-14.623l.005-4.78 5.97.006-.005 4.78z"/><path fill="#fff" d="M76.351 55.202l-5.138 2.987z"/><path fill="#282d33" d="M70.053 56.037l5.176-2.979 2.385 4.144-5.176 2.98z"/><path fill="#fff" d="M63.208 42.178l-2.987 5.257z"/><path fill="#282d33" d="M58.107 46.264l2.99-5.168 4.137 2.394-2.99 5.167z"/><path fill="#fff" d="M49.825 73.244a4.182 4.182 0 1 0-8.364 0 4.156 4.156 0 0 0 4.182 4.182 4.233 4.233 0 0 0 4.182-4.182z"/><path fill="#282d33" d="M45.643 79.815a6.63 6.63 0 0 1-6.572-6.571 6.813 6.813 0 0 1 1.912-4.66 6.579 6.579 0 1 1 4.66 11.232zm0-8.364a1.825 1.825 0 0 0-1.195.478 1.534 1.534 0 0 0-.478 1.195 1.838 1.838 0 0 0 1.792 1.792 1.838 1.838 0 0 0 1.792-1.792 2.043 2.043 0 0 0-1.911-1.673zm-2.39-50.66h4.78v6.57h-4.78z"/><g fill="#1c0fd5"><path d="M85.073 32.978l-3.226-9.917 18.64-18.64 3.346 9.917z"/><path d="M85.073 32.978l9.917 3.226 18.64-18.64-9.8-3.226z"/></g><path fill="#282d33" d="M84.117 37.4l-5.018-14.937L101.562 0l5.018 14.936zm.482-13.623l1.553 4.779 14.936-14.936-1.553-4.779z"/><path fill="#282d33" d="M95.588 38.952l-14.936-4.899 22.463-22.463 14.937 5.018zm-6.094-7.05l4.779 1.553 14.936-14.935-4.779-1.553z"/><path fill="#282d33" d="M48.75 71.81a2.359 2.359 0 0 1-1.673-.717 2.31 2.31 0 0 1 0-3.346l57.83-57.83a2.366 2.366 0 1 1 3.346 3.346l-57.83 57.83a2.359 2.359 0 0 1-1.673.717z"/></symbol><symbol id="logo" viewBox="0 0 265.18 112.11"><g transform="translate(-36 -139)"><text fill="curentColor" font-family="Purple Pen" font-size="49" transform="translate(49.644 178)"><tspan x="0" y="0" class="just">just</tspan></text><g fill="#0d0e0f"><path d="M74.083 241.649v-8.813h-.139c-3.386 6.216-8.442 9.323-15.122 9.323a17.482 17.482 0 0 1-9.092-2.366 14.822 14.822 0 0 1-5.937-6.03c-1.345-2.5-2.041-6.54-2.041-12.107v-19.62a7.229 7.229 0 0 0-1.206-4.5c-.789-1.02-2.319-1.53-4.546-1.53v-.928h21.848v.928c-2.412 0-3.943.557-4.685 1.624a8.147 8.147 0 0 0-1.063 4.406v20.734a19.094 19.094 0 0 0 1.113 7.236 9.185 9.185 0 0 0 2.227 3.34 10.531 10.531 0 0 0 3.34 2.134 11.488 11.488 0 0 0 3.989.742 11.7 11.7 0 0 0 4.175-.789 11.019 11.019 0 0 0 3.572-2.227 9.748 9.748 0 0 0 2.412-3.293 23.7 23.7 0 0 0 1.16-8.489v-19.388c0-2.227-.464-3.757-1.345-4.685s-2.366-1.392-4.407-1.392v-.835h21.842v.928c-2.366 0-3.943.557-4.639 1.623a7.657 7.657 0 0 0-1.066 4.403v32.66a7.137 7.137 0 0 0 1.252 4.592c.835.974 2.319 1.484 4.5 1.484v.835z"/><path d="M103.537 195.124l28.388 29.965v-21.291c0-2.783-.557-4.731-1.716-5.752a9.778 9.778 0 0 0-5.2-2.041v-.928h16.054v.928a6.715 6.715 0 0 0-3.943 1.438 5.079 5.079 0 0 0-1.667 2.688 16.385 16.385 0 0 0-.371 3.618v38.361h-1.209L99.826 206.3v26.211a10.718 10.718 0 0 0 1.392 5.613c.928 1.531 2.69 2.412 5.2 2.6v.928H89.807v-.928c4.639-.371 6.958-2.644 6.911-6.865v-30.8a3.8 3.8 0 0 1-.51-.464l-.928-.928c-.464-.417-.835-.789-1.206-1.16-2.83-2.737-5.288-4.221-7.422-4.546v-.93h16.884z"/><path d="M137.398 195.959v-.835h21.848v.928c-2.412 0-3.989.557-4.685 1.67a8.086 8.086 0 0 0-1.067 4.36v32.655a12.853 12.853 0 0 0 .278 2.783 4.051 4.051 0 0 0 1.484 2.226 5.821 5.821 0 0 0 3.711.974h.232v.928h-21.847v-.924c2.412 0 3.943-.557 4.685-1.623a8.087 8.087 0 0 0 1.067-4.36v-32.7c0-2.134-.464-3.711-1.392-4.639a5.7 5.7 0 0 0-4.314-1.443z"/><path d="M191.02 241.046l3.943 2.5a8.091 8.091 0 0 0 1.9.974 6.755 6.755 0 0 0 2.412.417c1.438 0 2.922-.789 4.5-2.366l.974.7a23.143 23.143 0 0 1-4.5 5.381 10.642 10.642 0 0 1-7.283 2.458 13.889 13.889 0 0 1-5.381-1.02 48.534 48.534 0 0 1-6.54-3.433c-3.989-2.458-7.051-4.453-9.138-5.984a57.825 57.825 0 0 1-4.87-2.5 18.885 18.885 0 0 1-3.618-3.015 21.7 21.7 0 0 1-4.685-7.746 26.906 26.906 0 0 1-1.531-8.952 25.813 25.813 0 0 1 1.624-9.045 22.54 22.54 0 0 1 4.731-7.654 22.228 22.228 0 0 1 7.7-5.242 27.046 27.046 0 0 1 10.347-1.905 26.494 26.494 0 0 1 10.2 1.9 21.325 21.325 0 0 1 7.654 5.2 22.829 22.829 0 0 1 4.685 7.468 23.949 23.949 0 0 1 1.577 8.674 25.777 25.777 0 0 1-.742 6.169 22.978 22.978 0 0 1-2.174 5.889 23.784 23.784 0 0 1-3.479 4.963 19.294 19.294 0 0 1-4.36 3.618 35.165 35.165 0 0 1-4.592 2.18 6.71 6.71 0 0 1 .646.371zm3.711-23.425c0-1.716-.093-3.572-.278-5.613a25.517 25.517 0 0 0-1.531-6.4 14.482 14.482 0 0 0-3.989-5.891 10.706 10.706 0 0 0-7.422-2.458c-5.334 0-8.86 2.227-10.576 6.633a43.948 43.948 0 0 0-.186 28.991c1.577 4.5 5.149 6.772 10.715 6.772a11.18 11.18 0 0 0 5.937-1.623 11.376 11.376 0 0 0 3.989-3.85q3.341-5.428 3.341-16.561zm46.479 24.028v-8.813h-.139c-3.386 6.216-8.442 9.323-15.122 9.323a17.482 17.482 0 0 1-9.092-2.366 14.821 14.821 0 0 1-5.937-6.03c-1.345-2.5-2.041-6.54-2.041-12.107v-19.62a7.229 7.229 0 0 0-1.206-4.5c-.789-1.02-2.319-1.531-4.546-1.531v-.927h21.848v.928c-2.412 0-3.943.557-4.685 1.624a8.146 8.146 0 0 0-1.067 4.407v20.733a19.093 19.093 0 0 0 1.113 7.236 9.185 9.185 0 0 0 2.227 3.34 10.531 10.531 0 0 0 3.34 2.134 11.487 11.487 0 0 0 3.989.742 11.7 11.7 0 0 0 4.175-.789 11.018 11.018 0 0 0 3.572-2.227 9.748 9.748 0 0 0 2.412-3.293 23.7 23.7 0 0 0 1.16-8.489v-19.388c0-2.227-.464-3.757-1.345-4.685s-2.366-1.392-4.407-1.392v-.835h21.848v.928c-2.366 0-3.943.557-4.639 1.623a8.037 8.037 0 0 0-1.067 4.407v32.656a7.137 7.137 0 0 0 1.252 4.592c.835.974 2.319 1.484 4.5 1.484v.835z"/><path d="M287.363 195.124l.371 10.437h-.928a23.636 23.636 0 0 0-1.392-4.314 6.035 6.035 0 0 0-2.18-2.6 7.132 7.132 0 0 0-3.9-.881h-9.37v19.577h7.47c2.227 0 3.85-.51 4.87-1.484a6.535 6.535 0 0 0 1.763-4.407h.928v13.591h-.928c-.325-2.041-1.067-3.433-2.319-4.128a8.662 8.662 0 0 0-4.36-1.02h-7.468V233.3c0 3.9 1.995 5.8 5.984 5.8h2.83a12.242 12.242 0 0 0 4.685-.742 6.748 6.748 0 0 0 3.015-2.6 20.592 20.592 0 0 0 2.134-5.242h.928l-.7 11.179h-35.062v-.928q3.688 0 4.731-1.67a8.086 8.086 0 0 0 1.067-4.36v-32.613a8.726 8.726 0 0 0-.974-4.314c-.649-1.16-2.18-1.763-4.5-1.763h-.324v-.923z"/></g><circle cx="3.54" cy="3.54" r="3.54" fill="#1c0fd5" transform="translate(294.095 234.375)"/></g></symbol><symbol id="bg" viewBox="0 0 1881.5 862.79"><path d="M0 38.946v-14.1h342.9v15.2q-57 0-73.6 27.6-16.65 27.6-16.6 72.8v543.3q0 25.8 4.5 46.2 4.5 20.55 23.5 37c12.7 11 32.1 16.6 58.2 16.6h4v15.2H0v-15.2q56.55 0 73.3-27.3 16.8-27.3 16.8-72.5v-543.3c0-35.7-7.4-61.6-22.1-77.5q-21.75-24-68-24zm829.456 669.806l56.858 38.12a119.911 119.911 0 0 0 27.556 15.248 92.772 92.772 0 0 0 34.813 6.522q31 0 65.125-36.191l14.146 10.655q-24.526 44.366-64.666 82.026-40.095 37.614-105.174 37.66a193.648 193.648 0 0 1-77.613-15.892q-36.65-15.983-93.968-52.082-86.527-56.491-132-91.212c-29.394-14.513-52.816-27.373-70.085-38.579q-25.9-16.947-52.357-46.295-45.468-51.117-67.33-118.217a437.566 437.566 0 0 1-21.86-136.586q0-72.336 23.239-138.241a349.763 349.763 0 0 1 68.248-116.839q45.055-50.979 110.869-79.914Q610.979 0 694.337 0q81.43 0 147.243 28.934 65.722 28.934 110.409 79.179a342.812 342.812 0 0 1 67.33 114.176 392.594 392.594 0 0 1 22.78 132.455 441.719 441.719 0 0 1-10.471 94.335 397.152 397.152 0 0 1-31.139 90.293 338.7 338.7 0 0 1-49.877 75.5q-32.792 36.65-62.829 55.3A457.724 457.724 0 0 1 821.74 703.7c4.225 2.3 6.797 4.041 7.716 5.052zM882.64 350.61q0-39.544-4.317-85.425-4.271-45.881-21.861-98.009a216.243 216.243 0 0 0-57.777-90.018q-40.232-37.89-107.195-37.844-115.6 0-152.479 101.316-36.925 101.408-36.834 231.658a667.626 667.626 0 0 0 34.354 211.174q34.308 103.474 154.041 103.52 47.81 0 85.792-24.617 38.028-24.663 57.593-58.879 48.775-82.945 48.683-252.876zM1629 798.746v-146.6h-2q-79.8 154.95-237.4 155-79.8 0-143-39.4-63.15-39.45-93.4-100.4-31.65-63-31.7-201.2v-325.7q0-49.35-18.6-74.9-18.6-25.5-71.6-25.5v-15.2h342.9v15.2q-56.55 0-73.3 27.3c-11.2 18.2-16.8 42.6-16.8 73v345.2q0 76.2 17.3 120.3 12.45 32.1 34.9 55.2a150.795 150.795 0 0 0 52.5 35.2 165.429 165.429 0 0 0 62.7 12.1 169.5 169.5 0 0 0 65.4-12.9 177.615 177.615 0 0 0 56.2-37 164.4 164.4 0 0 0 37.9-54.6q17.85-45.15 17.8-140.8v-322.6q0-55.2-20.8-78.3-20.85-23.1-69.4-23.1v-14.2h342.9v15.2q-55.95 0-73.1 26.8-17.1 26.85-17.1 73.6v543.3q0 51.45 19.3 76.2 19.35 24.75 70.9 24.7v14.2H1629z"/></symbol></svg>