<svg xmlns="http://www.w3.org/2000/svg"><symbol id="ftr-2" viewBox="0 0 118.26 105.98"><path fill="#1c0fd5" d="M92.929 65.239l3.106-3.11a28.485 28.485 0 0 0 0-40.266l-.478-.478a28.485 28.485 0 0 0-40.266 0l-3.107 3.107-3.109-3.104a28.485 28.485 0 0 0-40.266 0l-.478.478a28.485 28.485 0 0 0 0 40.266l3.107 3.107 40.744 40.744z"/><path fill="#fff" d="M14.906 54.844a19.255 19.255 0 0 1 0-27.242l.358-.358a18.966 18.966 0 0 1 13.621-5.617v4.779a14.573 14.573 0 0 0-10.276 4.3l-.358.358a14.5 14.5 0 0 0 0 20.432zm30.11 39.788l-1.434 1.434-27.6 4.66 6.213-26.048 1.433-1.434z"/><path fill="#282d33" d="M12.874 103.712l7.169-30.229 1.912-1.912 3.346 3.346-.956.956-5.138 21.866 23.18-3.823.956-.956 3.346 3.346-1.912 2.031z"/><path fill="#abd2ca" d="M23.502 73.068l61.589-61.589 21.63 21.63L45.132 94.7z"/><path fill="#282d33" d="M85.163 14.936l18.28 18.281-58.188 58.188-18.281-18.28 58.189-58.189zm0-6.811l-65 65 25.092 25.092 65-65L85.163 8.125z"/><path fill="#282d33" d="M37.551 84.799l60.908-60.908 3.38 3.38L40.93 88.177zm-7.046-7.057l60.908-60.908 3.38 3.38L33.884 81.12zm81.661-47.035l-3.346-3.346 4.54-4.54a3.168 3.168 0 0 0-.6-.717L96.152 5.5a3.167 3.167 0 0 0-.717-.6l-4.54 4.54-3.343-3.346L92.69.956A3.336 3.336 0 0 1 95.08 0a6.729 6.729 0 0 1 4.421 2.151l16.608 16.608c2.27 2.39 2.868 5.257 1.195 6.811zM15.72 94.292l3.38-3.38 6.336 6.336-3.38 3.38z"/></symbol><symbol id="ftr-3" viewBox="0 0 122.11 86.7"><ellipse cx="39.79" cy="39.79" fill="#abd2ca" rx="39.79" ry="39.79" transform="rotate(-84.608 52.4 29.864)"/><path fill="#282d33" d="M61.057 70.784A27.262 27.262 0 0 1 33.815 46.17a26.1 26.1 0 0 1 .956-10.515l1.195-4.182 2.868 3.226a7.051 7.051 0 0 0 6.333 2.39 7.569 7.569 0 0 0 5.018-2.748 7.485 7.485 0 0 0 1.553-5.5 7.211 7.211 0 0 0-3.7-5.616l-3.7-2.151 3.823-2.031a27.183 27.183 0 0 1 10.156-3.107 24 24 0 0 1 2.979-.115 27.5 27.5 0 0 1 2.868 54.843 29.15 29.15 0 0 1-3.107.12zm-22.583-30.23a18.5 18.5 0 0 0 0 5.138 22.586 22.586 0 0 0 22.583 20.312 15.235 15.235 0 0 0 2.39-.119 22.705 22.705 0 0 0-2.39-45.284 15.234 15.234 0 0 0-2.39.119 33.986 33.986 0 0 0-5.018 1.075 13.1 13.1 0 0 1 2.868 6.572 12.12 12.12 0 0 1-2.629 8.961 11.852 11.852 0 0 1-8.244 4.421 10.623 10.623 0 0 1-7.17-1.195z"/><path fill="#282d33" d="M61.056 71.978c-24.494 0-46.957-10.156-59.981-27.123L0 43.422l1.075-1.434c13.144-16.967 35.607-27.123 59.981-27.123 24.494 0 46.957 10.156 59.981 27.123l1.075 1.434-1.075 1.434c-13.023 16.966-35.486 27.122-59.981 27.122zM5.974 43.422C18.4 58.358 38.832 67.199 61.056 67.199c22.344 0 42.775-8.842 55.082-23.777-12.426-14.936-32.858-23.777-55.082-23.777-22.343-.12-42.775 8.841-55.082 23.777z"/></symbol><symbol id="logo" viewBox="0 0 265.2 112.1"><style>.st0{enable-background:new}.st1{fill:#121315}.st2{fill:#0d0e0f}.st3{fill:#1c0fd5}</style><g transform="translate(-36 -139)"><g class="st0"><path d="M51.6 170.4c-1.4 4-3.4 8.5-6.6 11.7-.8.7-1.6 1.5-2.5 2-2.2 1.2-4.7.2-4.4-2.6.4-3.7 6.2-8 10.2-11 1.8-5.8 2.1-7.2 2.2-7.5.4-.9 2.7-1 2.7.2 0 .6-.7 3.9-1.2 5.9 2.1-1.3 3.9-2.5 4.5-2.7.9-.4 1.5.1.3.7-.5.2-4.3 2.6-5.2 3.3zm-8.4 10.1c2.3-2.4 3.7-5.6 4.8-8.4-1.8.9-5.9 4.1-7.5 6.9-2 3-.6 4.7 2.7 1.5zm8-20.6c0-1.4 2.4-1.8 2.4-.1-.1 1.2-2.4 1.6-2.4.1z" class="st1"/><path d="M66.7 164.7c-1.9 2-3.9 3.7-6 4.9-1.9 1-4.1 1.8-4.9-.7-.6-1.9 1.6-5.5 3.2-7.1 1.5-1.4 3.7-.4 2.7.7-1.2 1.4-2 2.7-2.7 4.2-2.1 4.4 1.9 1.5 3.2.6 1.9-1.5 4.3-3.6 5.8-5.4 1.1-1 3.4-.7 2.8 1-.6 1.9-5.4 10.4-1.5 6.9.6-.6 2.7-2.6 3.8-3.9 1-1.2 1.4-.5.8.3-.7 1.1-3.4 4-4.8 4.9-.9.6-1.8.9-2.5.8-2.6-.4-1.4-4.1-.7-5.5l.8-1.7z" class="st1"/><path d="M80.7 165.3c1-.5 1.1.2.4.5l-4.3 2.8c.1 2.8-.1 6.3-2.1 8.9-1.3 1.7-3.4 3.5-6 3.7-3.5.2-3.5-3.7-2.1-5.7 1.7-2.5 4.9-4.4 7.2-6.1-.1-1.6-.7-3.3-.7-5 0-2.3 1.2-4.3 3.5-4.4 1.1 0 1.4.4.6.7-2.4.9-.5 4.2-.5 7 1.3-.5 2.8-1.8 4-2.4zm-13.9 12.3c-.3 1.3.5 1.9 1.4 1.9 3.4 0 5.7-5.7 5.7-9-2.5 1.8-6.3 4.1-7.1 7.1z" class="st1"/><path d="M91.4 155.8c-1.5 0-2.8.1-4.3.1-2.4 4.5-5.1 9.8-6 12.6-.6 2-.6 3.6 1.6 2 1.8-1.3 4.3-4.1 5-4.9.7-.9 1.9-.7.7.5-1.6 1.9-4.9 5.6-7 6.2-2.3.6-3.2-1.7-2.7-4.2.8-3.7 2.9-8.3 4.9-12.3h-2.5c-1.5 0-.7-1 0-1h3.2c1.4-2.7 2.8-4.9 3.7-6.1.9-1.2 3.8-1.3 3.3.1-.8 1.2-2.1 3.4-3.5 6h3.7c1.6-.2 1.6.9-.1 1z" class="st1"/></g><path d="M74.1 241.6v-8.8H74c-3.4 6.2-8.4 9.3-15.1 9.3-3.2.1-6.3-.8-9.1-2.4-2.5-1.4-4.6-3.5-5.9-6-1.3-2.5-2-6.5-2-12.1V202c.1-1.6-.3-3.2-1.2-4.5-.8-1-2.3-1.5-4.5-1.5v-.9H58v.9c-2.4 0-3.9.6-4.7 1.6-.8 1.3-1.1 2.9-1.1 4.4v20.7c-.1 2.5.3 4.9 1.1 7.2.5 1.3 1.2 2.4 2.2 3.3 1 .9 2.1 1.6 3.3 2.1 1.3.5 2.6.7 4 .7s2.8-.3 4.2-.8c1.3-.5 2.5-1.3 3.6-2.2 1-.9 1.8-2 2.4-3.3.9-2.7 1.3-5.6 1.2-8.5V202c0-2.2-.5-3.8-1.3-4.7s-2.4-1.4-4.4-1.4v-.8h21.8v.9c-2.4 0-3.9.6-4.6 1.6-.8 1.3-1.2 2.9-1.1 4.4v32.7c-.1 1.6.3 3.2 1.3 4.6.8 1 2.3 1.5 4.5 1.5v.8H74.1z" class="st2"/><path d="M103.5 195.1l28.4 30v-21.3c0-2.8-.6-4.7-1.7-5.8a9.06 9.06 0 0 0-5.2-2v-.9h16.1v.9c-1.4 0-2.8.5-3.9 1.4-.8.7-1.4 1.6-1.7 2.7-.3 1.2-.4 2.4-.4 3.6v38.4h-1.2l-34-35.8v26.2c-.1 2 .4 3.9 1.4 5.6.9 1.5 2.7 2.4 5.2 2.6v.9H89.8v-.9c4.6-.4 7-2.6 6.9-6.9V203c-.2-.1-.4-.3-.5-.5l-.9-.9c-.5-.4-.8-.8-1.2-1.2-2.8-2.7-5.3-4.2-7.4-4.5v-.9l16.8.1z" class="st2"/><path d="M137.4 196v-.8h21.8v.9c-2.4 0-4 .6-4.7 1.7-.8 1.3-1.1 2.8-1.1 4.4v32.7c0 .9.1 1.9.3 2.8.2.9.8 1.7 1.5 2.2 1.1.7 2.4 1.1 3.7 1h.2v.9h-21.8v-.9c2.4 0 3.9-.6 4.7-1.6.8-1.3 1.1-2.8 1.1-4.4V202c0-2.1-.5-3.7-1.4-4.6-1.2-1.1-2.7-1.6-4.3-1.4z" class="st2"/><path d="M191 241l3.9 2.5c.6.4 1.2.7 1.9 1 .8.3 1.6.4 2.4.4 1.4 0 2.9-.8 4.5-2.4l1 .7c-1.2 2-2.7 3.8-4.5 5.4-2 1.7-4.6 2.6-7.3 2.5-1.8 0-3.7-.3-5.4-1-2.3-1-4.5-2.1-6.5-3.4-4-2.5-7.1-4.5-9.1-6-1.7-.8-3.3-1.6-4.9-2.5-1.3-.9-2.5-1.9-3.6-3-2.1-2.2-3.7-4.9-4.7-7.7-1-2.9-1.5-5.9-1.5-9 0-3.1.5-6.2 1.6-9 1-2.8 2.7-5.4 4.7-7.7 2.2-2.3 4.8-4.1 7.7-5.2 3.3-1.3 6.8-2 10.3-1.9 3.5 0 7 .6 10.2 1.9 2.9 1.2 5.5 2.9 7.7 5.2 2 2.2 3.6 4.7 4.7 7.5s1.6 5.7 1.6 8.7c0 2.1-.2 4.2-.7 6.2-.5 2.1-1.2 4-2.2 5.9-.9 1.8-2.1 3.5-3.5 5-1.3 1.4-2.7 2.6-4.4 3.6-1.5.8-3 1.6-4.6 2.2.3-.1.5 0 .7.1zm3.7-23.4c0-1.7-.1-3.6-.3-5.6-.2-2.2-.7-4.3-1.5-6.4-.8-2.3-2.2-4.3-4-5.9-2.1-1.7-4.7-2.6-7.4-2.5-5.3 0-8.9 2.2-10.6 6.6-3.3 9.4-3.4 19.6-.2 29 1.6 4.5 5.1 6.8 10.7 6.8 2.1 0 4.1-.5 5.9-1.6 1.6-.9 3-2.3 4-3.9 2.3-3.5 3.4-9.1 3.4-16.5zm46.5 24v-8.8h-.1c-3.4 6.2-8.4 9.3-15.1 9.3-3.2.1-6.3-.8-9.1-2.4-2.5-1.4-4.6-3.5-5.9-6-1.3-2.5-2-6.5-2-12.1V202c.1-1.6-.3-3.2-1.2-4.5-.8-1-2.3-1.5-4.5-1.5v-.9H225v.9c-2.4 0-3.9.6-4.7 1.6-.8 1.3-1.1 2.9-1.1 4.4v20.7c-.1 2.5.3 4.9 1.1 7.2.5 1.3 1.2 2.4 2.2 3.3 1 .9 2.1 1.6 3.3 2.1 1.3.5 2.6.7 4 .7s2.8-.3 4.2-.8c1.3-.5 2.5-1.3 3.6-2.2 1-.9 1.8-2 2.4-3.3.9-2.7 1.3-5.6 1.2-8.5V202c0-2.2-.5-3.8-1.3-4.7s-2.4-1.4-4.4-1.4v-.8h21.8v.9c-2.4 0-3.9.6-4.6 1.6-.8 1.3-1.1 2.9-1.1 4.4v32.7c-.1 1.6.3 3.2 1.3 4.6.8 1 2.3 1.5 4.5 1.5v.8h-16.2z" class="st2"/><path d="M287.4 195.1l.4 10.4h-.9c-.3-1.5-.8-2.9-1.4-4.3-.5-1.1-1.2-2-2.2-2.6-1.2-.7-2.5-1-3.9-.9H270v19.6h7.5c2.2 0 3.9-.5 4.9-1.5 1.1-1.2 1.7-2.8 1.8-4.4h.9V225h-.9c-.3-2-1.1-3.4-2.3-4.1-1.3-.7-2.8-1.1-4.4-1H270v13.4c0 3.9 2 5.8 6 5.8h2.8c1.6.1 3.2-.2 4.7-.7 1.2-.5 2.3-1.4 3-2.6.9-1.6 1.7-3.4 2.1-5.2h.9l-.7 11.2h-35.1v-.9c2.5 0 4-.6 4.7-1.7.8-1.3 1.1-2.8 1.1-4.4v-32.6c.1-1.5-.3-3-1-4.3-.6-1.2-2.2-1.8-4.5-1.8h-.3v-.9h33.7z" class="st2"/><circle fill="#1c0fd5" cx="297.6" cy="237.9" r="3.5" class="st3"/></g></symbol><symbol id="ftr-1" viewBox="0 0 118.05 118.89"><path fill="#fff" d="M88.897 73.244a43.253 43.253 0 1 1-43.254-43.253 43.242 43.242 0 0 1 43.254 43.253z"/><path fill="#282d33" d="M45.643 118.887a45.643 45.643 0 1 1 45.643-45.643 45.639 45.639 0 0 1-45.643 45.643zm0-86.387a40.864 40.864 0 1 0 40.864 40.864 40.922 40.922 0 0 0-40.864-40.863z"/><path fill="#fff" d="M54.365 19.238a1.887 1.887 0 0 1-1.912 1.912H38.832a1.887 1.887 0 0 1-1.912-1.912v-8.842a1.887 1.887 0 0 1 1.912-1.912h13.621a1.887 1.887 0 0 1 1.912 1.912z"/><path fill="#282d33" d="M52.45 23.419H38.832a4.244 4.244 0 0 1-2.987-1.195 4.148 4.148 0 0 1-1.195-2.987v-8.843a4.284 4.284 0 0 1 4.3-4.3h13.623a3.883 3.883 0 0 1 2.987 1.314 4.148 4.148 0 0 1 1.19 2.986v8.842a4.259 4.259 0 0 1-4.3 4.183zM39.429 18.64h12.546v-7.886H39.31z"/><path fill="#fff" d="M14.935 35.248l-3.107-4.54a1.2 1.2 0 0 1 .358-1.673l7.05-4.779a1.2 1.2 0 0 1 1.673.358l3.107 4.54z"/><path fill="#282d33" d="M12.904 36.563l-3.109-4.54a4.091 4.091 0 0 1-.6-2.629 3.089 3.089 0 0 1 1.553-2.27l7.05-4.779a3.48 3.48 0 0 1 4.9.956l3.107 4.54-3.94 2.629-2.39-3.585-5.018 3.346 2.39 3.585z"/><path fill="#abd2ca" d="M71.695 73.245a26.048 26.048 0 1 1-26.052-26.048 26.109 26.109 0 0 1 26.052 26.048z"/><path fill="#fff" d="M60.817 73.244A15.174 15.174 0 1 1 45.642 58.07a15.2 15.2 0 0 1 15.175 15.174z"/><path fill="#282d33" d="M42.895 37.638h4.78v5.97h-4.78z"/><path fill="#fff" d="M27.602 42.537l2.987 5.138z"/><path fill="#282d33" d="M25.475 43.782l4.139-2.391 2.986 5.17-4.139 2.39z"/><path fill="#fff" d="M14.577 55.8l5.138 2.987z"/><path fill="#282d33" d="M13.418 57.825l2.392-4.138 5.169 2.988-2.393 4.138zm-3.381 13.388h5.97v4.78h-5.97z"/><path fill="#fff" d="M14.936 91.405l5.138-2.987z"/><path fill="#282d33" d="M13.751 89.284l5.171-2.983 2.389 4.14-5.171 2.983z"/><path fill="#fff" d="M28.198 104.31l2.987-5.138z"/><path fill="#282d33" d="M26.019 103.112l2.99-5.168 4.137 2.394-2.99 5.167zm17.593-.116h4.78v5.97h-4.78z"/><path fill="#fff" d="M63.805 103.952l-2.987-5.138z"/><path fill="#282d33" d="M58.718 100.061l4.141-2.387 2.981 5.173-4.141 2.387z"/><path fill="#fff" d="M76.709 90.808l-5.138-2.987z"/><path fill="#282d33" d="M70.271 89.915l2.395-4.135 5.164 2.991-2.395 4.135zm5.026-14.623l.005-4.78 5.97.006-.005 4.78z"/><path fill="#fff" d="M76.351 55.202l-5.138 2.987z"/><path fill="#282d33" d="M70.053 56.037l5.176-2.979 2.385 4.144-5.176 2.98z"/><path fill="#fff" d="M63.208 42.178l-2.987 5.257z"/><path fill="#282d33" d="M58.107 46.264l2.99-5.168 4.137 2.394-2.99 5.167z"/><path fill="#fff" d="M49.825 73.244a4.182 4.182 0 1 0-8.364 0 4.156 4.156 0 0 0 4.182 4.182 4.233 4.233 0 0 0 4.182-4.182z"/><path fill="#282d33" d="M45.643 79.815a6.63 6.63 0 0 1-6.572-6.571 6.813 6.813 0 0 1 1.912-4.66 6.579 6.579 0 1 1 4.66 11.232zm0-8.364a1.825 1.825 0 0 0-1.195.478 1.534 1.534 0 0 0-.478 1.195 1.838 1.838 0 0 0 1.792 1.792 1.838 1.838 0 0 0 1.792-1.792 2.043 2.043 0 0 0-1.911-1.673zm-2.39-50.66h4.78v6.57h-4.78z"/><g fill="#1c0fd5"><path d="M85.073 32.978l-3.226-9.917 18.64-18.64 3.346 9.917z"/><path d="M85.073 32.978l9.917 3.226 18.64-18.64-9.8-3.226z"/></g><path fill="#282d33" d="M84.117 37.4l-5.018-14.937L101.562 0l5.018 14.936zm.482-13.623l1.553 4.779 14.936-14.936-1.553-4.779z"/><path fill="#282d33" d="M95.588 38.952l-14.936-4.899 22.463-22.463 14.937 5.018zm-6.094-7.05l4.779 1.553 14.936-14.935-4.779-1.553z"/><path fill="#282d33" d="M48.75 71.81a2.359 2.359 0 0 1-1.673-.717 2.31 2.31 0 0 1 0-3.346l57.83-57.83a2.366 2.366 0 1 1 3.346 3.346l-57.83 57.83a2.359 2.359 0 0 1-1.673.717z"/></symbol><symbol id="bg" viewBox="0 0 1881.5 862.79"><path d="M0 38.946v-14.1h342.9v15.2q-57 0-73.6 27.6-16.65 27.6-16.6 72.8v543.3q0 25.8 4.5 46.2 4.5 20.55 23.5 37c12.7 11 32.1 16.6 58.2 16.6h4v15.2H0v-15.2q56.55 0 73.3-27.3 16.8-27.3 16.8-72.5v-543.3c0-35.7-7.4-61.6-22.1-77.5q-21.75-24-68-24zm829.456 669.806l56.858 38.12a119.911 119.911 0 0 0 27.556 15.248 92.772 92.772 0 0 0 34.813 6.522q31 0 65.125-36.191l14.146 10.655q-24.526 44.366-64.666 82.026-40.095 37.614-105.174 37.66a193.648 193.648 0 0 1-77.613-15.892q-36.65-15.983-93.968-52.082-86.527-56.491-132-91.212c-29.394-14.513-52.816-27.373-70.085-38.579q-25.9-16.947-52.357-46.295-45.468-51.117-67.33-118.217a437.566 437.566 0 0 1-21.86-136.586q0-72.336 23.239-138.241a349.763 349.763 0 0 1 68.248-116.839q45.055-50.979 110.869-79.914Q610.979 0 694.337 0q81.43 0 147.243 28.934 65.722 28.934 110.409 79.179a342.812 342.812 0 0 1 67.33 114.176 392.594 392.594 0 0 1 22.78 132.455 441.719 441.719 0 0 1-10.471 94.335 397.152 397.152 0 0 1-31.139 90.293 338.7 338.7 0 0 1-49.877 75.5q-32.792 36.65-62.829 55.3A457.724 457.724 0 0 1 821.74 703.7c4.225 2.3 6.797 4.041 7.716 5.052zM882.64 350.61q0-39.544-4.317-85.425-4.271-45.881-21.861-98.009a216.243 216.243 0 0 0-57.777-90.018q-40.232-37.89-107.195-37.844-115.6 0-152.479 101.316-36.925 101.408-36.834 231.658a667.626 667.626 0 0 0 34.354 211.174q34.308 103.474 154.041 103.52 47.81 0 85.792-24.617 38.028-24.663 57.593-58.879 48.775-82.945 48.683-252.876zM1629 798.746v-146.6h-2q-79.8 154.95-237.4 155-79.8 0-143-39.4-63.15-39.45-93.4-100.4-31.65-63-31.7-201.2v-325.7q0-49.35-18.6-74.9-18.6-25.5-71.6-25.5v-15.2h342.9v15.2q-56.55 0-73.3 27.3c-11.2 18.2-16.8 42.6-16.8 73v345.2q0 76.2 17.3 120.3 12.45 32.1 34.9 55.2a150.795 150.795 0 0 0 52.5 35.2 165.429 165.429 0 0 0 62.7 12.1 169.5 169.5 0 0 0 65.4-12.9 177.615 177.615 0 0 0 56.2-37 164.4 164.4 0 0 0 37.9-54.6q17.85-45.15 17.8-140.8v-322.6q0-55.2-20.8-78.3-20.85-23.1-69.4-23.1v-14.2h342.9v15.2q-55.95 0-73.1 26.8-17.1 26.85-17.1 73.6v543.3q0 51.45 19.3 76.2 19.35 24.75 70.9 24.7v14.2H1629z"/></symbol></svg>